<?xml version="1.0" encoding="UTF-8"?>
<!DOCTYPE svg PUBLIC "-//W3C//DTD SVG 1.1//EN" "http://www.w3.org/Graphics/SVG/1.1/DTD/svg11.dtd">
<!-- Creator: CorelDRAW 2018 (64-Bit) -->
<svg xmlns="http://www.w3.org/2000/svg" xml:space="preserve" width="3in" height="0.228in" version="1.1"  style="shape-rendering:geometricPrecision; text-rendering:geometricPrecision; image-rendering:optimizeQuality; fill-rule:evenodd; clip-rule:evenodd"
viewBox="0 0 3000 228"
 xmlns:xlink="http://www.w3.org/1999/xlink">
 <defs>
  <style type="text/css">
   <![CDATA[
    .fil1 {fill:white}
    .fil0 {fill:white;fill-rule:nonzero}
   ]]>
  </style>
 </defs>
 <g id="Layer_x0020_1">
  <metadata id="CorelCorpID_0Corel-Layer"/>
  <g id="_2109430169568">
   <g>
    <path class="fil0" d="M1411.08 89.08c-0.79,19.43 -7.55,38.79 -19.69,54.05 -8.1,10.18 -18.44,17.68 -29.98,22.83 1.15,-0.64 2.26,-1.33 3.24,-2.17l-0.51 -0.66c-7.12,3.93 -14.6,5.53 -22.56,6.99 -8.82,1.62 -17.72,2.58 -26.69,2.55 -8.99,-0.03 -17.79,-1.42 -26.53,-3.38 -7.71,-1.72 -15.64,-3.22 -22.3,-7.71l-0.09 0.13c5.89,5.3 14.07,6.72 21.57,8.45 9.04,2.08 18.05,3.72 27.35,3.75 9.04,0.03 18.09,-1.16 26.97,-2.76 4.22,-0.77 9.13,-1.43 13.69,-2.78 -6.16,2.26 -12.58,3.89 -19.15,4.95 -6.22,1 -12.51,1.49 -18.79,1.52l0 -0.13 -0.13 0 -0.01 0.13c-6.78,0.04 -13.55,-0.49 -20.26,-1.57 -6.28,-1.02 -12.5,-2.49 -18.56,-4.42 -5.88,-1.88 -11.78,-3.96 -17.19,-6.97l2.13 -1.48 2.2 -1.56c-0.72,0.97 -1.4,1.94 -1.89,3l0.19 0.19c0.96,-0.7 1.77,-1.62 2.51,-2.59 1.17,0.85 2.44,1.47 3.84,1.91l0 0c4.97,2.41 10.16,4.37 15.49,5.91 11.8,3.66 24.53,4.88 36.47,3.99 5.48,-0.41 10.91,-1.36 16.24,-2.72 16.17,-3.74 31.44,-10.91 43.18,-22.91l2.48 -2.74c13.3,-14.15 21.47,-32.47 23.3,-51.94 1.47,-15.62 -1.57,-31.38 -8.28,-45.47 -7.02,-16.3 -19.02,-30.72 -34.83,-38.96l0.06 -0.2 -0.8 -0.46 -0.22 0.18 -0.26 -0.13 0.93 -0.91 -0.29 -0.38 -2.13 0.71 -1.69 0.25 2.03 -2.72c1.32,0.1 2.62,-0.09 3.89,-0.51l-0.05 -0.39c-1.09,0.04 -2.19,0.09 -3.28,0.17l0.63 -0.83 0.17 -0.46c16.96,5.79 28.9,20.02 36.28,35.9 7.43,15.98 12.01,34.7 11.28,52.37zm-99.23 108.17l0.5 -0.5 -0.1 -0.24 -0.96 0.74 -0.73 0.01 0.54 -0.58 -0.19 -0.19 -1.09 0.78 -0.77 0.02c1.26,-0.94 2.48,-2.11 3.32,-3.4l-0.22 -0.23c-1.44,0.98 -2.8,2.27 -4.01,3.53l-0.02 -0.84c1.48,-0.96 3.13,-2.43 4.19,-3.83l-0.24 -0.24c-1.41,0.77 -2.93,2.08 -3.97,3.39 -0.09,-2.29 -0.11,-4.57 -0.08,-6.86l0.42 0.02c1.46,-1.15 3.05,-2.39 4.06,-3.96l-0.16 -0.16c-1.53,1.11 -2.83,2.52 -4.32,3.7l0.02 -1.63c1.02,-0.5 1.88,-1.43 2.71,-2.19 0.86,-0.8 1.92,-1.64 2.42,-2.72l-0.24 -0.24c-1.08,0.47 -1.97,1.51 -2.83,2.32l-2.05 1.95 0.01 -0.73c1.2,-0.98 4.86,-4.69 5.1,-5.26l-0.22 -0.22 -1.87 1.39 -2.39 2.33 -0.62 0.56 0.01 -1.44c1.28,-1.21 6.42,-5.39 6.89,-6.02l-0.35 -0.36c-1.65,0.87 -3.11,2.48 -4.5,3.71l-2.03 1.68 -0.02 -1.05c0.78,-0.8 4.3,-3.18 5.67,-4.41 1.09,0.04 2.2,0.05 3.31,0.06 -1.26,2.8 -0.75,6.46 -0.76,9.45 -0.02,3.72 -0.14,7.33 0.61,10.98l0.04 0.06 0.03 0.45c-1.69,0.05 -3.39,0.11 -5.06,0.16zm-3.9 -18.24l0.1 -0.07c0.21,-0.95 1.96,-1.8 2.75,-2.34l0.88 -0.57 0.67 0.04 -0.83 0.64 -2.33 1.81 -1.21 0.93 -0.02 -0.43zm-0.77 -2.2l0.03 -0.09 -0.13 -0.95 0.15 0.02 0 0.98 -0.06 0.04zm2.3 -0.89l0.82 0.04 -1.25 1.01 -1.14 1.1 -0.05 -1.2 1.61 -0.95zm-1.64 0.41l-0.02 -0.5 0.67 0.04 -0.65 0.46zm-47.43 -15.01l0 -0.02 2.33 -1.83 0.28 0.06c1.17,-0.56 2.24,-1.34 3.33,-2.06l0.89 -0.59 -1.11 1.51 -0.16 -0.13 -0.43 0.21c-0.96,0.15 -1.76,0.72 -2.54,1.28l-1.96 1.89 -0.63 -0.33zm4.53 -4.48l0.96 -1.23c1.48,-0.92 3.02,-1.91 4.19,-3.16 -0.6,1.04 -1.23,2.06 -1.88,3.06l-2.43 1.49 -2.22 1.53 1.38 -1.69zm2.74 -3.52c1.08,-0.77 2.12,-1.62 2.94,-2.52l-0.22 -0.28 -1.36 0.74 0.9 -1.39 0.34 -0.17 -0.06 -0.26 0.08 -0.13 1.23 0.6 -1.2 2.11 -0.24 -0.08 -2.42 1.37 0.01 0zm86.38 -140.8l-0.06 0.08 -0.02 -0.01 0.08 -0.07zm2.5 -1.61c1.23,-0.2 2.57,-0.65 3.74,-1.31l-1.08 1.7 -0.01 -0.01c-1.3,0.85 -2.55,1.34 -3.98,1.7l1.34 -2.08zm-122.24 79.6l-0 -0.02 0 0.02zm-0.2 -17.49l0.11 0.15c-0.31,3.24 -0.46,6.47 -0.41,9.68l-0.07 -1.44c-0.02,-2.79 0.09,-5.59 0.37,-8.39zm21.17 55.16l-0.1 -0.09 -0.23 0.18c1,-1.08 1.94,-2.22 2.93,-3.28 2.44,-2.62 5,-5.16 7.63,-7.6l0.3 -0.28 0.24 0.2 0.05 0.81 0.28 -0.04 0.13 -0.43c0.93,0.63 1.59,1.06 2.37,2.05l0.96 2.46 -0.84 0.74c-4.35,3.77 -8.7,7.55 -13.03,11.35 -1.07,-1.21 -2.12,-2.44 -3.12,-3.71l2.43 -2.36zm0.59 -28.65c-0.15,2.14 0.42,4.36 1.35,6.46 -4.4,3.28 -8.74,6.64 -12.92,10.09l0.24 0.3 1.1 -0.78c0.97,-0.28 2.81,-2.02 3.51,-2.53 2.82,-2.08 5.64,-4.17 8.45,-6.27l0.54 1.06 0.27 0.8 0.17 -0.02 0.72 1.15 0.06 0.69 0.22 -0.03 0.06 -0.16 0.7 0.96c-4.09,3.44 -8.12,6.98 -12.02,10.51l0.23 0.4 2.24 -0.46 -0.08 -0.3c-2.63,0.42 -0.1,-0.84 0.62,-1.42 1.16,-0.96 2.33,-1.92 3.5,-2.88 2.03,-1.68 4.07,-3.36 6.11,-5.04l1.79 2.19 2.52 2.36c-4.51,4.13 -9.11,8.59 -12.63,13.55 -3.37,-4.32 -6.33,-8.95 -8.83,-13.85 -1.07,-2.11 -2.05,-4.28 -2.96,-6.5 5.05,-3.36 10.09,-6.79 15.07,-10.32zm-2.52 -7.87l0.01 0 2.12 -0.69c1.05,0.19 2.12,2.11 2.09,2.94 -0.03,0.96 -0.69,1.91 -1.05,2.78l-0.51 1.81c-5.19,3.58 -10.31,7.26 -15.37,10.97 -0.96,-2.38 -1.83,-4.8 -2.61,-7.28 5.2,-3.34 10.31,-6.89 15.31,-10.53zm-3.17 -3.41l-0.05 -1.64 1.33 -0.94 -0.14 -0.24 -1.1 0.72 0.01 -0.07 -0.52 -0.69 -1.81 -0.3 2.21 -2.71 1.76 -2.26c0.23,1.11 0.07,2.26 -0.58,3.33l0.28 0.68 1.94 0.38c-1.31,0.9 -2.41,2.36 -3.34,3.74zm4.45 -1.26l-0.64 0.67 -2.17 2.56 -1.07 -0.84 1.7 -2.31 1.86 -2.12 0.04 -0.21 0.9 0.25 -0.63 2zm0.47 2.98l-1.27 0.51 -1.69 -0.12 2.36 -1.91 -0.02 0.18 0.22 0.39 1.19 0.42 -0.8 0.54zm24.89 4.27l-0.18 0.01c-2.16,1.08 -3.88,2.99 -5.74,4.5 -2.37,1.92 -4.83,3.69 -7.35,5.41 -2.02,1.35 -4.88,2.52 -6.58,4.25l-0.72 -1.23c1.54,-1.34 4.71,-2.95 5.42,-3.42 1.89,-1.27 3.74,-2.58 5.55,-3.96 2.87,-2.18 6.37,-4.44 8.59,-7.36l1.5 1.31 -0.5 0.48zm-17.92 16.9l-0.02 0.04 -0 -0.01 0.02 -0.02zm30.35 -8.29c2.19,1.19 2.46,3.02 3.34,5.11l0.55 0.87c1.21,1.9 1.1,0.76 0.17,1.77l-1.87 1.72c-1.53,2.55 -0.04,6.07 -0.59,8.89 -2.86,2.25 -5.67,4.57 -8.45,6.94 -3.39,2.12 -6.65,5.13 -9.24,8.06l-0.26 0.22 -0.45 -1.04c2.09,-2.01 12.1,-10.38 12.94,-11.39l-0.27 -0.34c-3.61,2.05 -6.77,5.18 -9.9,7.88 -0.39,0.33 -2.33,1.61 -3.22,2.81l-0.51 -1.18c2.4,-2.41 16,-12.21 17.45,-13.75l-0.24 -0.3c-4.06,2.1 -7.62,5.27 -11.24,8.04 -1.57,1.19 -3.13,2.37 -4.65,3.63l-1.69 1.53 -0.4 -0.87c2.27,-1.87 4.52,-3.75 6.75,-5.65 1.39,-0.91 2.74,-1.86 4.06,-2.84 3.06,-2.3 6.18,-4.7 8.52,-7.76l-0.37 -0.37 0.14 -0.11 -0.21 -0.29c-4.41,3.33 -8.71,6.88 -12.95,10.51 -2.31,1.44 -5.02,2.97 -6.18,5.37l-0.2 0.17 -0.95 -2.2 0 -0.21 5.5 -3.7c1.81,-1.13 3.64,-2.22 5.41,-3.41 3.09,-2.05 6.14,-4.24 7.95,-7.52l-0.31 -0.24c-3.75,3.28 -7.48,6.29 -11.69,8.98 -1.28,0.82 -6.43,3.36 -7.18,5.35l-0.5 -1.48 -0.16 -0.67 0.07 -0.04c0.66,-1.78 4.07,-2.75 5.62,-3.65 2.12,-1.2 4.2,-2.51 6.23,-3.86 3.71,-2.47 7.83,-5.09 10.73,-8.52l-0.23 -0.3c-4.78,2.81 -8.96,6.66 -13.67,9.61 -2.35,1.49 -4.91,2.72 -7.2,4.28 -1.06,0.71 -1.46,1.08 -1.57,2.31 -0.18,-1.06 -0.19,-2.17 -0.3,-3.24 1.6,-1.35 3.2,-2.72 4.79,-4.07l1.85 -0.99c2.11,-1.27 4.18,-2.61 6.2,-4.02 3.2,-2.24 7.83,-4.93 9.81,-8.31l-0.33 -0.33c-2.28,0.96 -4.09,2.97 -6.01,4.49 -2.31,1.83 -4.67,3.59 -7.08,5.27l-0.26 0.18c1.04,-0.96 2.06,-1.93 3.06,-2.94l-0.17 -0.22c-2.76,2.02 -5.38,4.25 -7.97,6.51l-1.3 0.83c-1.13,0.71 -2.12,1.3 -2.74,2.41l-0.39 -1.22 -0.93 -1.26c1.92,-2.41 10.15,-7.25 11.34,-8.11 2.73,-1.97 6,-4.2 7.95,-7.06l0.76 -0.69c0.78,-0.17 1.61,-0.13 2.61,0.42zm-3.9 51.82l-0.88 -0.31 1.51 -1.3 -0.63 1.62zm-4.54 -1.7l-0.13 -0.06 -0.65 -1.83 -0.17 -1.16 0.32 -0.04 1.96 -2.12c0.44,1.04 1.13,0.79 1.84,1.08l-1.92 2.75 0.65 0.38c0.62,-0.83 1.28,-1.73 1.77,-2.69l0.97 1.66 0.43 1.24 -1.94 1.97 -0.48 -0.19 0.79 -0.89 -0.21 -0.28 -1.25 0.92 -1.98 -0.74zm-1.38 -2.04l0.54 1.68 -2.23 -0.95 1.48 -1.39 0.2 0.66zm-1.17 -8.87l-1.46 1.92 -0.01 0.1 -0.33 -0.51 1.81 -1.51zm6.83 -5.94l-1.19 1.13 -0.07 0.01 1.26 -1.15zm-9.48 6.02c1.25,-1.18 2.35,-2.54 3.59,-3.72 1.47,-1.42 3.17,-2.69 4.44,-4.28l-0.19 -0.24c-1.88,0.86 -3.48,2.41 -4.93,3.86 -1.13,1.11 -2.36,2.32 -3.3,3.65 -0.69,-1.35 -1.33,-2.73 -1.94,-4.13 2.89,-2.41 5.76,-4.87 8.6,-7.36 1.24,-0.93 2.47,-1.88 3.56,-2.96l0.05 -0.21c1.74,-1.57 3.46,-3.18 5.16,-4.79 -0.65,1.81 -2.15,2.56 -3.32,4.01l-0.92 2.35c-0.31,1.08 -1.01,2.27 -1.28,3.33 -0.2,0.79 0.01,1.84 0.09,2.83 -3.19,2.61 -6.36,5.3 -9.39,8.06l-0.22 -0.42zm3.86 5.78c-0.57,-1.28 -1.56,-2.38 -2.44,-3.52l0.22 -0.07c0.98,-0.9 1.84,-1.97 2.7,-2.99l1.72 -2.16 0.12 -0.11 0.86 0.97c0.75,1.93 -0.69,0.92 -1.55,1.82l-0.35 0.94 -1.93 2.36 0.58 0.45 1.57 -1.9 0.62 0.88 0.33 2.18 -0.34 0.37 -1.83 1.79 -0.27 -1.01zm30.21 -66.06l-0.85 0.76 0.21 0.26 0.69 -0.52c0.07,1.74 -0.25,3.48 -0.94,5.21l0.11 0.44 1.46 1.28 -0.94 0.93c-4.85,4.67 -9.86,9.27 -14.47,14.19l0.28 0.28c5.09,-4.43 9.88,-9.24 14.74,-13.92l1 -0.94 0.89 0.77 -0.5 0.71 0.17 0.1 0.52 -0.65c1.69,1.5 3.24,3.17 3.86,5.17 -3.37,2.89 -6.95,5.57 -10.78,7.97l0.26 0.44c3.89,-2.34 7.61,-5.01 11.13,-7.93l0.12 -0.01c1.09,-0.56 2.43,-1.34 3.67,-1.48 1.22,-0.14 2.37,0.36 3.51,0.42l1.26 -0.09c-0.94,1.05 -1.89,2.08 -2.83,3.13l0.33 0.33c1.56,-1.54 3.12,-3.09 4.67,-4.64l0.55 0.48 1.3 1.09c1.5,0.97 2.78,1.41 2.32,3.77l-0.91 2.24c0,1 0.62,1.65 1.15,2.43l0.06 0.09c-2.9,2.14 -5.79,4.3 -8.69,6.42l0.25 0.42c2.93,-2.06 5.89,-4.11 8.83,-6.16 0.66,1.08 1.23,2.19 1.62,3.38l-0.92 0.74 0.28 0.37 0.84 -0.44 0.17 0.58 0.12 0.66 -0.98 0.74 0.2 0.27 0.85 -0.59 0.22 2.37 -1.01 1.29 0.06 0.23 0.26 0.2 0.24 0.04 0.22 -0.17 -0.18 -0.29 0.23 -0.13 0.06 0.06 0.09 -0.09 -0.2 1.68c-0.23,1.28 -0.78,2.54 -0.86,3.85 -0.17,2.34 1.19,4.05 2.38,5.92l0.15 0.25 -0.07 0.42 0.28 0.37 0.21 0 0.2 0.5 -2.27 1.78 0.36 0.46 2.18 -1.44c0.22,0.99 0.14,1.97 -0.37,3.26l-0.44 1.76c0.09,1.43 1.9,2.72 2.66,4.04 -6.44,6.09 -12.72,12.37 -18.9,18.69l0.5 0.49c6.32,-5.96 12.63,-12.03 18.74,-18.24l-0.11 0.7 0.4 0.52c1.83,-0.06 3.49,-0.22 4.9,-0.88 -2.33,2.26 -4.67,4.52 -7.07,6.72 -4.56,4.19 -9.03,8.42 -13.15,13.03l-0.04 0.2c-2.89,0.77 -5.85,1.25 -8.83,1.46 -1.84,0.13 -3.67,0.14 -5.52,0.08 4.03,-4.22 8.04,-8.45 12.01,-12.72 4.51,-4.85 9.39,-9.56 13.45,-14.79l-0.29 -0.3c-4.93,4.43 -9.26,9.63 -13.76,14.48 -4.09,4.4 -8.13,8.84 -12.15,13.29 -1.6,-0.06 -3.19,-0.19 -4.78,-0.38 7.74,-8.02 15.48,-16.11 22.72,-24.54l-0.21 -0.21c-8.04,7.91 -15.68,16.29 -23.25,24.66 -1.98,-0.26 -3.96,-0.56 -5.91,-0.99l-2.09 -0.5c3.33,-3.18 6.5,-6.58 9.7,-9.85 4.23,-4.3 8.48,-8.56 12.52,-13.04l-0.2 -0.21c-4.43,4.09 -8.62,8.42 -12.85,12.71 -3.31,3.37 -6.77,6.69 -9.98,10.18 -2.9,-0.73 -5.76,-1.59 -8.58,-2.59l0.97 -2.01 -0.08 -0.54c7.07,-6.11 14,-12.62 20.39,-19.36l-0.26 -0.26c-7.07,5.87 -13.96,12.27 -20.46,18.85 -0.59,-1.11 -1.57,-2.31 -1.32,-2.96l-0.33 -0.42c-1.39,0.17 -1.74,-0.55 -1.91,-1.43 1.86,-1.79 3.72,-3.57 5.59,-5.35 4.74,-4.52 9.71,-8.93 14.13,-13.76l-0.22 -0.22c-5.04,4.19 -9.65,8.96 -14.37,13.51 -1.74,1.68 -3.5,3.35 -5.25,5.02l-0.15 -0.84c-0.34,-1.2 -1.63,-1.73 -0.1,-2.83 0.6,-0.42 1.55,0.05 1.69,-1.07 0.18,-1.4 -2.61,-2 -0.5,-3.09 0.89,-0.46 1.5,0.11 2.15,-1.05l0.24 -1.9c2.44,-2.24 4.87,-4.48 7.22,-6.73l-0.26 -0.26c-2.34,1.82 -4.7,3.7 -7.04,5.61l0.07 -1.1c0.23,-1.64 0.37,-1.01 0.7,-2.05l0.38 -2.3c0.27,-1.83 1.74,-2.48 2.86,-3.7 0.9,-0.99 1.32,-2.26 1.52,-3.56l0.74 -0.69 -0.2 -0.2 -0.46 0.38 0.07 -1.33c0.03,-3.62 -0.93,-6.67 3.13,-8.36l0.27 -0.69c-0.8,-1.62 -1.57,-3.07 -2.3,-4.74 -0.51,-1.19 -1.36,-2.22 -2.41,-2.97 -0.78,-0.56 -1.68,-0.96 -2.63,-1.12 3.73,-3.43 7.44,-6.88 11.13,-10.34 3.51,-3.3 7.14,-6.52 10.61,-9.88l0.1 0.73zm37.31 53.63l0.09 -1.07c1.04,-0.66 2.07,-1.31 3.11,-1.97 -1.1,1.02 -2.17,2.07 -3.24,3.1l0.04 -0.06zm17.04 -20.11c-0.98,1.7 -2.65,1.44 -3.81,2.69l-0.73 2.23c-0.17,1.77 -0.13,3.38 -0.48,5.03 -2.99,2.02 -5.95,4.04 -8.91,6.07 0.39,-0.89 -0.04,-1.83 1.07,-2.91 0.72,-0.7 1.56,-0.72 1.98,-1.86l-0.07 -2.22 -0.29 -1.88c2.18,-1.67 4.35,-3.35 6.54,-5 1.88,-1.43 3.83,-2.83 5.8,-4.25l-1.09 2.09zm-2.46 10.29l0 0.9 -1.24 0.72 -0.29 -0.3 -0.31 -0.58 1.21 -0.77 0.63 0.03zm0.64 -0.47l-0.3 0.14 0.38 -0.57 0.93 -0.62 -0.92 1.74 0.07 -0.33 -0.15 -0.36zm-1.22 -1.86l2.72 -2.22 -0.09 1.13 0 0.05c-1.22,0.78 -2.44,1.56 -3.63,2.37l0.22 -1.02c0.24,-2.41 -0.54,-4.03 2.06,-5.62 1.57,-0.94 1.99,-1.53 2.69,-3.34 1.07,-2.78 0.57,1.47 0.41,2.5l-0.25 1.78 -0.41 0.43 -0.19 -0.07c-1.51,0.52 -3,2.26 -3.96,3.48l0.42 0.54zm-26.07 -14.11l-0.24 -0.73c3.72,-1.92 7.24,-4.39 10.7,-6.72 -3.5,2.55 -6.98,5.12 -10.41,7.77l-0.06 -0.31zm-1.71 -5.15l0.17 -0.03 0.11 -0.11 0.02 -0.07 1.93 -1.34 1.17 -0.46c1.29,-0.65 2.57,-1.33 3.85,-2.04 2.39,-1.3 4.75,-2.67 7.07,-4.07l0.69 -0.42c-2.39,2.46 -4.78,4.94 -7.15,7.44 -2.28,1.5 -4.58,3.04 -6.7,4.74 -0.48,-1.07 -1.11,-2.18 -1.64,-3.3l0.48 -0.33zm-10.14 -9.94c-0.41,-0.74 6.2,-5.46 11.42,-9.05 -2.52,2.62 -5,5.28 -7.44,7.96 -1.26,0.19 -2.4,1.13 -3.86,1.17l-0.13 -0.02 0.01 -0.06zm30.17 -25.1l0.84 1.32c-3.02,1.8 -5.87,3.94 -8.72,5.92 -1.26,0.87 -2.49,1.79 -3.74,2.67 1.39,-1.55 2.78,-3.09 4.13,-4.65l1.52 -0.99c2.08,-1.36 4.41,-2.73 5.75,-4.86l0.22 0.59zm-0.06 -3.85l-0.04 -0.21 0.1 0.15 -0.06 0.06zm1 3.65l-0.6 -1.63 -0.05 -0.15 -0.34 -1.76 0.05 0.05 0.08 -0.09c0.67,0.95 1.28,1.92 1.84,2.93l-0.98 0.65zm0.59 1.13l-0.38 -0.74 1.05 -0.57 0.37 0.73 -1.04 0.57zm0.89 3.69l0.34 -1.54 -0.06 -0.52 -0.6 -0.81 0.82 -0.64 0.93 2.17 -1.43 1.34zm10.67 11.74l-0.42 0.16 -0.55 0.62c-0.71,0.96 -1.63,0.78 -2.77,-0.52l1 -0.62 1.83 -1.56 2.62 -0.44 0.57 -0.09 -2.29 2.44zm7.48 -7.94l-0.75 0.76 0.75 -0.76zm-1.59 -5.03c0.8,0.93 1.98,1.11 1.91,2.48 -0.07,1.42 -0.9,0.96 -1.78,1.8 -1.17,1.09 -0.83,2.61 -1.38,3.74l-0.9 0.96 -0.72 0.34c-1.74,0.56 -3.72,0.15 -5.3,1.26 -0.96,0.68 -0.51,1.07 -1.78,0.38l-0.32 -0.22 0.07 -0.05 -0.2 -0.26 -0.16 0.1 1.4 -1.41c2.04,0.08 4.14,0.04 5.96,-0.34l0 -0.34c-1.52,-0.3 -3.22,-0.37 -4.93,-0.34 2.72,-2.73 5.4,-5.51 7.92,-8.4l0.21 0.3zm-10.85 9.43l-0.09 -0.41 0.54 0.04 -0.09 0.09 -0.37 0.28zm-8.97 -3.26c1.04,-0.83 2.05,-1.68 2.98,-2.58l0.17 0.3 1.38 1.67c-2.7,1.47 -5.09,3.67 -7.56,5.49 -2.01,1.48 -4.07,2.9 -6.12,4.32 3.09,-3.01 6.15,-6.09 9.15,-9.19zm5.53 -1.57l-1.91 -1.68 0.88 -0.93 -0.12 -0.39 0.66 -0.71c0.47,1.37 0.81,2.72 0.92,4.21l0.27 2.04 0.85 1.03 0.12 0.29 0.15 0.44 0.02 0 0.49 1.73c-2.11,-0.79 -3.23,-3.26 -2.08,-5.4l-0.26 -0.63zm-4.98 13.66c-2.8,1.87 -5.56,3.81 -8.41,5.52l-0.49 0.28c3.82,-2.7 7.58,-5.47 11.31,-8.27l-2.41 2.47zm4.31 -3.34l2.54 -2.54 0.22 -0.17 -0.13 1.23 0.13 0.53c-1.42,0.73 -2.81,1.55 -4.19,2.41l1.43 -1.46zm1.45 4.65l-0.62 -0.22c-4.64,2.35 -8.9,5.78 -13.21,8.69l-1.78 1.17c2.52,-2.5 5.04,-5.03 7.54,-7.56 3.41,-2.06 6.87,-4.23 9.7,-6.9l1.48 1.29 1.44 0.15c-1.52,1.11 -3.04,2.24 -4.55,3.38zm8.43 -26.63l-0.98 0.31c0.31,-1.07 1.21,-1.71 2.47,-0.56l1 1.95c0.88,1.02 1.59,0.78 2.74,0.98 2.03,0.37 2.07,1.68 3.65,2.43l2.5 0.02 0.55 -0.22 0.8 1.37 0.84 0.36c1.23,0.2 1.06,-0.52 2.52,0.13 2.56,1.16 2.38,3.51 2.67,5.78 -5.11,4.61 -9.95,9.59 -14.7,14.63 -2.84,1.48 -5.61,3.18 -8.3,4.96l0.87 -1.12c1.09,-1.66 2.12,-3.26 2.81,-5.13 0.39,-1.06 1.45,-3.46 1.22,-4.8 1.73,-1.31 3.44,-2.66 5.09,-4.06l-0.2 -0.26c-1.8,1.1 -3.55,2.28 -5.29,3.48l-0.04 -0.02c0.98,-1.02 1.97,-2.04 2.97,-3.06l0.04 -0.02c1.24,-0.54 1.59,-1.11 1.86,-1.95 2.46,-2.56 4.89,-5.17 7.08,-7.93l-0.27 -0.27c-1.15,1.03 -2.28,2.09 -3.39,3.18l0.05 -0.14c0.4,-1.71 -2.23,-2.86 -2.97,-4.13l0.28 -0.31 -0.28 -0.27 -0.19 0.19 0.06 -0.64 -0.8 -0.62c-0.83,1.21 -1.82,1.31 -2.98,0.35l-0.46 -0.81c-1.6,-0.06 -2.29,-1.35 -2.33,-2.57l1.26 -0.95 -0.17 -0.3zm-4.59 3.44l2.65 -1.64 1.18 2.04c-1.14,0.43 -2.2,1.17 -3.19,1.84 -1.21,0.83 -2.64,1.72 -3.54,2.89l0.3 0.39c1.41,-0.63 2.68,-1.72 3.96,-2.56 1,-0.66 2.11,-1.27 3.02,-2.07l0.75 0.42 0.03 1.36c-1.84,0.72 -3.59,1.93 -5.22,2.95 -0.97,0.6 -2.86,1.37 -2.5,2.79l0.52 -0.06c-0.08,-1.29 3.74,-2.83 4.67,-3.35 0.96,-0.54 1.99,-1.02 2.93,-1.62l0.19 0.07c1.25,-0.14 2.25,-0.48 3.21,-1.11l0.21 0.54c-3.12,2.83 -6.09,5.84 -9.02,8.91l-1.78 0.11 -1.19 -1.62c-0.56,-1.13 -0.41,-2.32 -0.64,-3.56 -0.2,-1.03 -0.51,-2.05 -0.87,-3.06l1.63 -1.79 2.69 -1.87zm-39.63 25.41l-1.89 -0.24 -2.47 0.67c2.21,-1.97 4.32,-4.03 6.31,-6.21 3.98,-2.89 7.99,-5.74 12.13,-8.45 2.41,-1.57 4.83,-3.13 7.24,-4.69 -2.14,2.08 -4.26,4.19 -6.35,6.33 -0.96,0.69 -1.95,1.37 -2.91,2.07 -3.15,2.32 -6.29,4.67 -9.37,7.07 -0.6,0.47 -3.97,2.35 -2.69,3.46zm9.04 5.92l0.33 -0.83 0.4 0.04c4.65,-2.38 9.2,-5.02 13.63,-7.78 3.97,-2.46 8.85,-4.96 12.02,-8.45l-0.22 -0.38c-4.39,1.8 -8.42,5.24 -12.42,7.77 -4.31,2.73 -8.7,5.33 -13.07,7.95l-0.31 -1.67c-1.02,-1.49 -3.68,-1.47 -4.08,-3.43l-0.11 -0.18c3.5,-3.52 6.94,-7.13 10.33,-10.77 0.98,-0.68 1.72,-1.17 2,-1.37 4.63,-3.26 9.65,-6.22 14.18,-9.67l0.04 0.07c0.35,1.05 0.06,0.76 0.07,1.64l0.11 1.39 -2.23 2.19c-3.31,2.31 -6.46,4.95 -9.76,7.19 -4.67,3.18 -9.6,5.96 -14.24,9.18l0.2 0.33c5.3,-2.31 10.28,-5.59 15.05,-8.83l2.54 -1.7c-2.5,2.55 -4.96,5.11 -7.38,7.7 -2.71,1.57 -6.97,4.19 -5.94,5.29l0.2 -0.16c-0.09,-0.15 1.32,-1.17 3.22,-2.43 -0.88,0.96 -1.78,1.9 -2.65,2.86l0.32 0.31c1.89,-1.76 3.78,-3.55 5.65,-5.34 2.84,-1.83 5.63,-3.57 6.09,-3.9 3.65,-2.53 8.07,-5.19 11.09,-8.54 0.04,0.87 -0.22,1.7 0.2,2.67 0.55,1.27 1.52,1.55 2.34,2.46l0.04 0.04 -1.41 1.47c-7.61,5.06 -15.04,10.43 -22.41,15.88 -1.23,0.55 -2.7,1.23 -3.07,2.26l-0.33 0.24c-0.5,-1.22 -0.77,-2.42 -0.43,-3.53zm2.5 13.89l0 -0.01 0 0.01zm2.79 12.29l0.86 -0.71c2.06,-1.7 4.13,-3.33 6.33,-4.85 3.09,-2.14 7.37,-4.37 9.38,-7.66l-0.33 -0.34c-3.27,1.8 -6.19,4.54 -9.25,6.71 -0.47,0.33 -5.8,4.38 -7.48,6.02l-0.05 -0.09c-0.57,-0.92 -1.28,-1.78 -1.76,-2.76 -1.07,-2.14 -0.42,-4.02 0.04,-6.2 0.2,-0.94 0.3,-1.91 0.33,-2.87 3.78,-1.96 7.44,-4.48 10.99,-6.78 2.04,-1.32 4.07,-2.67 6.08,-4.04 1.61,-1.09 3.4,-2.03 4.46,-3.67l-0.13 -0.31c0.68,-1.61 1.82,-2.77 3.09,-3.96l-0.2 -0.35c-1.85,0.78 -3.02,2.51 -3.64,4.36l0.01 0.07c-2.24,0.75 -4.24,2.62 -6.16,3.94 -2.15,1.48 -4.33,2.94 -6.51,4.4 -2.18,1.46 -4.37,2.89 -6.56,4.35l-1.44 0.83 -0.28 -2.38c6.3,-4.33 12.45,-8.89 18.64,-13.39 2.06,-1.49 4.15,-2.96 6.24,-4.44 -2.23,2.36 -4.44,4.74 -6.57,7.18l0.38 0.38c3.4,-3.31 6.66,-6.76 9.92,-10.2 1.13,-0.82 2.25,-1.65 3.37,-2.49 -0.12,1.13 -0.94,3.7 -1.07,4.05 -0.92,2.53 -2.41,4.22 -3.89,6.42l-0.5 0.9c-1.7,1.15 -3.36,2.31 -4.98,3.45 -5.59,3.96 -11.05,8.28 -16,13.04l-0.48 0.31c-1.25,0.83 -3.85,2 -4.49,3.23l-0.13 -0.13 -0.73 0.56 0.31 0.54c1.05,-0.48 2.09,-1.02 3.12,-1.59l0.28 -0.05 0.43 -0.38c2.64,-1.51 5.2,-3.22 7.7,-4.89 1.29,-0.87 2.66,-1.74 4.02,-2.64 -2.45,1.75 -4.79,3.82 -7.14,5.48 -2.83,2 -6.39,3.69 -8.34,6.63l0.52 0.4c2.6,-3.19 7.31,-5.12 10.66,-7.5 2.85,-2.02 6.32,-4.12 8.44,-6.94l-0.35 -0.35 -2.36 1.32c1.68,-1.17 3.28,-2.43 4.6,-3.88l-0.52 -0.67c-3.28,1.59 -6.25,4.07 -9.24,6.25 3.43,-2.85 6.93,-5.59 10.61,-8.17 1.1,-0.78 2.24,-1.49 3.37,-2.22 -0.48,1.41 -0.96,2.75 -2.41,3.59 -3.42,1.99 -1.93,4.66 -1.23,7.88l0.06 0.32c-1,0.75 -2,1.49 -3.01,2.22 -5.64,4.05 -11.45,8 -16.97,12.25l-0.07 -0.16zm2.49 10.85l0.24 -0.09c1.07,-1.04 2.06,-2.17 2.99,-3.33l2.6 -2.7 -0.03 -0.26 0.9 -1.27 -0.31 -0.31c-1.07,0.56 -1.93,1.67 -2.8,2.5 -1,0.94 -2.02,1.87 -3.04,2.77l0.36 0.47 0.68 -0.55 -0.38 0.41 -1.65 1.53 -0.07 -0.11c-0.64,-0.9 -1.69,-1.56 -2.1,-2.6 -0.55,-1.41 0.43,-2.29 0.75,-3.58 0.25,-1 0.13,-1.89 -0.19,-2.76 6.14,-4.08 12.06,-8.6 18.03,-12.89l1.75 -1.23c0.18,1.85 -0.07,3.77 -1.13,5.29l-2.17 1.63 -2.31 1.7 -0.02 0.06c-0.97,0.72 -1.94,1.46 -2.91,2.19l-0.13 -0.02c-1.97,0.96 -3.63,2.68 -5.26,4.1l-2.32 2.02 -0.7 0.57 -0.06 0.11 -2.39 2.29 0.46 0.57c1.92,-1.36 3.69,-2.97 5.48,-4.51l0.85 -0.72c2.3,-1.67 4.57,-3.37 6.83,-5.09l0.07 0.24 0.35 0.61c-0.39,1.19 -0.77,2.37 -1.15,3.56l-1.41 0.54 -0.29 1.19c-0.29,1.16 -0.62,1.8 -1.51,2.52l-1.02 0.77 -0.39 1.17 -1.06 0.72 0.37 0.63 0.55 -0.33 -0.26 0.86c-1.2,2.08 -3.92,2.31 -6.11,2.39l-0.1 -1.06zm31.13 -9.53c-3.42,3.77 -6.7,7.7 -9.93,11.65 -4.09,3.58 -8.49,6.79 -13.15,9.59 -3.83,2.29 -7.8,3.94 -11.85,5.53 3.71,-3.51 7.43,-7.06 11.09,-10.66 3.83,-2.87 7.65,-5.74 11.46,-8.64 -5,4.42 -9.83,9.05 -14.65,13.61l0.35 0.33c7.02,-6.12 14.18,-12.27 20.72,-18.94 1.27,-0.98 2.55,-1.95 3.81,-2.95l-0.18 -0.24c-6.15,4.38 -12.18,8.93 -18.2,13.49 3.09,-3.12 6.13,-6.27 9.04,-9.51l-0.23 -0.22c-8.41,7.5 -16.35,15.75 -24.12,23.9l-0.06 0.19 -2.42 0.94 -0.38 -0.08c-2.62,0.47 -5.04,1.57 -7.59,2.31 8.46,-8.7 18.59,-16.11 26.17,-25.61l-0.03 -0.21c2.58,-1.61 5.16,-3.26 7.74,-4.89l0.48 0.54 1 0.13 0.35 -0.19c2.56,0.02 3.22,-1.93 3.59,-3.99 4.29,-2.82 8.54,-5.71 12.59,-8.83l-0.19 -0.33c-4.13,2.29 -8.13,4.81 -12.11,7.4l0.07 -0.41c0.21,-1.11 0.92,-1.51 1.54,-2.4 1.48,-2.19 0.94,-4.3 0.49,-6.67 3.62,-2.64 7.22,-5.36 10.33,-8.42l-0.29 -0.38c-6.52,3.76 -12.46,9.06 -18.44,13.61l-0.48 0.38 0.46 -1.23c0.27,-1.03 0.17,-2.26 -0,-3.52 6.04,-4.23 12.37,-8.33 17.81,-13.24l-0.21 -0.28c-6.22,3.5 -12.01,8.03 -17.78,12.34 -0.47,-2.88 -1.01,-5.82 1.18,-7.36 1,-0.7 2.1,-0.98 2.65,-2.17 0.44,-0.94 -0.01,-1.13 0.23,-2.08l0.18 -0.61c2.08,-1.3 4.19,-2.56 6.31,-3.8 -1.35,1.44 -2.7,2.88 -4.05,4.3l0.39 0.39c2.17,-2.13 4.36,-4.25 6.55,-6.38 2.17,-1.29 4.33,-2.59 6.45,-3.98l-0.14 -0.33c-1.14,0.43 -2.26,0.91 -3.39,1.44 4.14,-4.07 8.2,-8.23 12.01,-12.58l0.23 0.94c0.45,1.33 1.37,2.28 1.94,3.33 -0.91,19.37 -8.77,37.8 -22.37,51.82 1.83,-2.23 3.65,-4.49 5.4,-6.78l-0.34 -0.26zm-17.81 -102.72l0.06 -0.72 1.06 0.05 -1.12 0.67zm-17.8 -5.88l-0.37 -0.61 3.2 -1.13c2.01,-0.62 4.07,-0.93 6.15,-1.1l-0.03 0.45 -2.23 0.64 -1.19 0.16 -0.15 0 -0.07 0.04 -0.71 0.24 -0.13 0.16c-1.56,0.78 -3.07,1.7 -4.55,2.63l0.08 -1.47zm-5.07 5.52l1.56 0.15 0.11 -0.03 -1.66 2.44c-1.34,-1.98 -1.36,-2.84 -0.01,-2.56zm12.82 -3.54c-2.62,-2.71 -5.37,3 -6.43,4.42l0.17 0.41c1.45,0.43 1.72,1.65 0.63,2.37l-1 0.25 -0.58 0.66 0.25 0.98c0.02,0.06 2.58,2.83 0.27,1.78 -1.13,-0.5 -0.94,-2.59 -2.5,-3.28l-1.97 -0.2 -1.07 0.35 -0.58 0.4c-0.36,0.29 -0.27,-0.06 0.29,-1.07l0 -0.56 0.08 -0.05c0.9,-1.28 1.94,-2.49 3.22,-3.41 1.11,-0.8 2.42,-1.21 3.57,-1.93l-0.1 -0.36c-1.86,-0.06 -3.72,1.08 -5.15,2.56l0.56 -0.97 0.07 -0.09 0.63 -0.6c0.95,-0.78 2.04,-1.39 3.11,-2.04 1.12,-0.68 2.22,-1.39 3.3,-2.13l0.31 0.1 0.28 -0.21 0.02 -0.06 2.39 -0.43 1.53 -0.86 0.67 0.8 1.45 0.33 1.68 0.06 -0.22 1.99 -0.78 0.66c-1.18,2.01 0.24,4.3 2.36,3.37l0.17 2.27 0.26 0.37 -2.59 1.83 -0.12 -0.16c-1.1,-0.62 -2.46,-1.15 -3.45,-1.93 -0.68,-0.54 -1.43,-1 -1.15,-2.13l0.54 -0.54c0.37,-1.06 0.84,-1.96 -0.13,-2.98zm-20.91 9.87l0.18 -0.78 0.84 -1.12 0.1 0.44 1.1 2.29 0.74 0.76 0.11 1.17 -0.39 1.91 0 1.18c0.24,0.98 -0.09,1.34 -1,1.08 -0.97,0.25 -1.13,0.07 -0.5,-0.54l0.78 -1.99c0.09,-1.54 -0.96,-3.24 -1.96,-4.4zm-7.89 45.57l-0.26 -0.25 -1.73 1.49c2.98,-3.56 7.63,-6.29 11.15,-9.14 3.32,-2.67 7.57,-5.27 10.38,-8.56 1.2,0.32 1.67,0.21 1.65,1.81l0.33 0.43c2.02,0.56 3.56,1.52 4.96,3.05l0.68 -0.09c0.62,-1.35 -0.45,-3.99 2.74,-3.09 1.21,0.33 1.85,1.81 3.24,1.95 1.33,0.15 2.38,-0.53 2.57,-1.68 1.41,0.57 3.05,0.18 3.95,-1.2 1.33,-2.03 0.19,-4.38 -1.2,-6l-0.49 -0.06 -0.3 0.16c3.76,-2.44 7.5,-4.91 11.17,-7.46 3.94,-2.75 8.55,-5.34 11.85,-8.86l-0.3 -0.39c-4.67,2.09 -8.93,5.87 -13.06,8.88 -3.87,2.83 -7.71,5.74 -11.48,8.7l0 0.02 -1.93 -0.5c-0.7,-0.81 -0.56,-2.28 -0.83,-3.28 -0.3,-1.05 -0.63,-2.06 -1.67,-2.55l-0.4 -0.15c4.92,-1.78 9.62,-4.33 14.22,-6.81 4.69,-2.52 9.46,-5.13 13.64,-8.47l-0.44 -0.56c-4.59,2.7 -9.04,5.59 -13.72,8.13 -4.67,2.52 -9.61,4.67 -14.09,7.51l-0.04 0.13c-1.06,-0.11 -2.34,0.3 -2.22,1.54l1.34 1.96c1.21,1.35 0.73,1.39 -1.46,0.11l-0.61 -1.62c-0.39,-1.08 -0.6,-2.26 -1.48,-3.07l-0.08 -0.06c1.93,-1.58 6.2,-3.11 7.37,-3.72 2.45,-1.28 4.87,-2.6 7.27,-3.96 2.4,-1.37 4.78,-2.76 7.14,-4.18 2.18,-1.33 4.67,-2.52 6.43,-4.39l-0.17 -0.3c-3.07,1.04 -5.85,3.33 -8.63,4.99 -3,1.8 -6.04,3.52 -9.09,5.2 -3.06,1.69 -6.18,3.25 -9.24,4.94l-1.69 1.03 -0.67 -0.36c-3.59,-2.65 -0.58,-1.15 -2.1,-2.59 -0.83,-0.8 -1.04,-1.2 -2.18,-0.86l-0.24 0.24c-0.35,1.48 -0.05,2.55 0.92,3.74 1.29,1.57 4.78,2.45 2.93,5.09 -2.83,1.17 -3.74,1.55 -2.73,1.12l0.57 -0.35 0.81 -1.09 -0.14 -2.65 -2.84 -2.44 -1.09 -1.1c-1.09,-0.72 -2.49,-0.75 -3.71,-0.38 -1.34,0.4 -2.39,1.31 -3.2,2.43 -0.75,1.05 -2.6,7.2 -4.25,6.22l-0.47 0.19 -0.31 0.77 -1.81 -0.93 -1.62 -0.54c-1.52,-1.48 0.1,-2.33 0.28,-3.48 0.16,-1.04 0.25,-1.9 0.15,-2.85l2.34 0.73c-1.58,1.41 -2.89,3.06 -2.45,4.76l0.3 -0.04c-0.07,-2.04 4.11,-4.74 5.57,-5.85 1.74,-1.3 3.58,-2.46 5.44,-3.57 3.8,-2.24 7.68,-4.27 11.53,-6.41 4.09,-2.26 7.98,-4.8 11.69,-7.64 3.09,-2.36 6.98,-4.96 9.28,-8.13l-0.29 -0.28c-2.04,1.2 -3.72,3.06 -5.53,4.58 -2.31,1.93 -4.69,3.79 -7.14,5.53 -4,2.82 -8.24,5.23 -12.61,7.41 -4.22,2.1 -8.42,4.11 -12.23,6.92l-0.3 0.21c0.46,-1.63 -0.38,-3.42 -1.69,-4.54 1.02,0.06 2.04,-0.09 2.78,-0.87 1.42,-1.5 -0.13,-2.24 2.54,-2.06l0.28 -0.17c0.89,-1.66 2.17,-2.62 3.98,-3.03l0.2 -0.48c-0.62,-0.99 -0.75,-2.59 0.15,-3.47l0.07 0.69 0.35 2.59 1.99 1.33c-3.73,1.4 -6.96,4.18 -9.71,6.96l0.15 0.2c3.54,-2.59 7.53,-4.57 11.04,-7.19l0.08 -0.18c2.56,-0.63 4.14,-0.44 6.48,-2.06 1.17,-0.81 2.24,-1.67 3.19,-2.67l0.44 0.86 0.3 -0.23 0.03 -1.47 0.38 -0.52c1.3,-1.48 4.23,-2.9 5.06,-3.43 1.67,-1.08 3.27,-2.17 4.82,-3.42l-0.22 -0.28 -0.22 0.13c0.8,-1.48 -1.31,-2.77 1.39,-4.85l0 -0.01 0.25 0.12c2.53,1.65 4.94,3.46 7.29,5.33 -4.84,4.23 -10.01,8.05 -15.53,11.33 -3.16,1.9 -6.44,3.58 -9.74,5.23 -3.41,1.72 -7.17,3.24 -10.27,5.49l0.09 0.23c3.52,-1.09 6.84,-3.09 10.13,-4.73 3.61,-1.8 7.2,-3.65 10.66,-5.73 5.44,-3.29 10.54,-7.09 15.32,-11.28l1.89 1.51c0.95,0.83 1.82,1.73 2.69,2.65l1.06 1.15c3.49,5.05 6.63,10.3 9.41,15.78l0.13 -0.07c-2.19,-4.68 -4.78,-9.13 -7.7,-13.37 1.26,1.66 2.48,3.38 3.59,5.2 3.27,5.33 5.83,11.04 7.72,16.98 1.43,4.71 2.45,9.5 3.16,14.15 0.2,1.56 0.37,3.11 0.49,4.66 0.2,2.7 0.25,5.39 0.18,8.07l-0 -0.01c-0.83,-1.15 -1.09,-2 -1.34,-3.45l0.6 -0.67 -0.26 -0.26 -0.45 0.42c-0.38,-1.98 -1.01,-4.07 -2.44,-5.56 -1.24,-1.29 -4.3,-0.17 -4.8,-2.15l-0.56 -0.15c-2.47,2.85 -2.82,-1.25 -4.39,-1.97l-0.41 -0.12 0.07 0c1.74,-0.87 3.4,-1.91 5.07,-2.92 1.46,-0.88 3.12,-1.67 4.26,-2.95l-0.2 -0.37c-1.66,0.45 -3.11,1.57 -4.55,2.47 -1.65,1.04 -3.33,2.06 -4.89,3.21l0 0.52 -1.55 0.06c-1.37,-0.19 -1.95,-0.71 -2.33,-1.33 2.21,-1.21 4.31,-2.63 6.48,-3.91 2.04,-1.19 4.57,-2.07 6.25,-3.75l-0.17 -0.41c-2.41,0.29 -4.63,1.9 -6.67,3.14 -2.15,1.29 -4.31,2.69 -6.17,4.39l-1.47 -2.11 -0.79 -0.4c1.77,-1.69 4.95,-2.69 6.98,-3.77 2.58,-1.37 5.29,-2.6 7.73,-4.18l-0.41 -0.98c-3.07,1.25 -5.99,3.02 -8.88,4.66 -1.95,1.11 -4.8,2.22 -6.09,4.2l-0.42 0.09c-1.29,0.49 -1.65,1.88 -1.45,3.33l-1.91 1.05 -0.22 -0.22 -1.33 1.25 -0.86 0.59 -2.95 2.24 -0.72 -1.57 -0.22 -0.47 -0.45 -0.81c1.68,-0.93 3.35,-1.88 5.02,-2.85 2.01,-1.19 4.3,-2.21 5.94,-3.89l-0.2 -0.33c-2.25,0.66 -4.22,2.2 -6.21,3.43 -1.64,1.01 -3.26,2.05 -4.86,3.1 -0.61,-1.05 -1.27,-2.06 -1.97,-3.01l0.06 -0.02c3.07,-3.54 8.35,-5.73 12.34,-8.08 4.28,-2.51 8.97,-4.73 12.95,-7.68l-0.33 -0.8c-4.76,2 -9.26,5.11 -13.69,7.78 -3.96,2.39 -8.81,4.6 -11.83,8.17l-0.59 -0.78 -0.74 0.31c-0.01,1.3 0.13,2.55 0.46,3.77 -5.22,5.37 -12.26,8.96 -18.46,13.1 -1.99,1.33 -3.99,2.69 -5.97,4.09 1.63,-2.05 3.13,-4.17 4.54,-6.36l0.39 -0.29c2.67,-1.92 5.33,-3.83 8,-5.75 2.67,-1.93 5.59,-3.7 7.89,-6.07l-0.31 -0.41c-3.94,1.9 -7.43,5 -10.96,7.55 -3.6,2.61 -7.2,5.22 -10.8,7.83 -1.5,1.1 -13.59,8.54 -11.55,10.37l0.2 -0.21 9.05 -7.22c2.35,-1.67 4.69,-3.36 7.04,-5.04 -1.92,2.58 -3.94,5.06 -6.05,7.44 -3.23,2.39 -6.35,4.97 -9.09,7.85l0.15 0.19c1.45,-1.05 2.89,-2.11 4.34,-3.17 -1.31,1.29 -2.64,2.55 -4.02,3.78 -0.42,0.07 -0.15,-0.16 -0.81,-1.28l-1.72 -1.65 -2.04 -1.81c1.96,-2.43 4.65,-4.2 7.15,-6.03 2.88,-2.11 5.76,-4.21 8.65,-6.32 2.73,-2 5.48,-3.98 8.21,-5.97 2.72,-2 5.88,-3.78 8.22,-6.2l-0.52 -0.68c-3.31,1.58 -6.29,4.29 -9.24,6.46 -3.19,2.35 -6.33,4.74 -9.48,7.15 -4.43,3.39 -9.88,6.75 -13.21,11.38l-0.71 -0.74c1.28,-1.22 2.56,-2.43 3.84,-3.64 3.36,-2.63 6.82,-5.11 10.23,-7.65 2.48,-1.85 4.97,-3.7 7.46,-5.53 2.47,-1.84 5.25,-3.55 7.38,-5.79l-0.27 -0.33c-2.88,1.47 -5.43,3.78 -8.01,5.73 -2.79,2.09 -5.57,4.19 -8.35,6.28 -1.33,1 -2.66,1.99 -3.99,2.99 1.57,-1.55 3.12,-3.12 4.61,-4.76l-0.28 -0.28c-4.6,3.87 -8.86,8.18 -13.17,12.37 -1,-1.3 -0.85,-1.75 -0.52,-3.44 4.39,-3.3 8.63,-6.76 12.88,-10.22 4.67,-3.78 9.93,-7.32 14.09,-11.65l-0.22 -0.28c-4.85,2.95 -9.17,7.07 -13.56,10.64 -4.44,3.61 -8.87,7.22 -13.13,11.04 0.15,-1.01 0.19,-2.05 0.09,-3.07 3.68,-2.75 7.22,-5.69 10.75,-8.63 4.25,-3.55 8.96,-6.95 12.6,-11.13l-0.2 -0.26c-4.39,2.81 -8.23,6.63 -12.2,10 -3.67,3.13 -7.4,6.2 -11,9.44l-0.15 -0.74c1.3,-1.29 2.58,-2.58 3.82,-3.91zm1.89 -13.91l0.08 -0.28 0.8 -1.23 -0.88 1.5zm1.34 -1.49l0.56 0.11 0.79 -0.59 0.21 -2.06c2.36,0.8 4.72,0.02 6.36,-1.91l1.62 1.13c-1.33,0.96 -2.63,2.02 -3.94,2.91 -2.5,1.67 -5.04,3.24 -7.63,4.78l-0.02 0.01c0.69,-1.46 1.37,-2.92 2.06,-4.37zm-5.6 11.5l0.16 -0.28 0 -0.01c3.19,-3.43 7.69,-5.47 11.5,-8.12 1.13,-0.8 2.35,-1.61 3.58,-2.47 -0.88,0.81 -1.77,1.6 -2.73,2.33 -2.26,1.72 -4.63,3.31 -6.99,4.91 -0.99,0.67 -3.72,2.05 -5.52,3.64zm-1.65 6.82c-0.5,-1.71 -0.77,-2.32 0.01,-3.8l0.22 0.54 0.17 -0.07c-0.53,-1.95 4.98,-4.84 6.43,-5.83 1.84,-1.25 3.68,-2.48 5.49,-3.77 3.22,-2.29 7.13,-4.85 9.24,-8.26l-0.08 -0.34 1.34 -1.58 -0.27 -0.26c-1.9,1.01 -3.46,2.56 -5.14,3.91 -2.19,1.74 -4.43,3.4 -6.74,4.98 -2.86,1.96 -5.94,3.69 -8.28,6.28 0.8,-1.53 1.55,-3.08 2.3,-4.65l2.29 -1.22c1.69,-0.96 3.33,-2.01 4.95,-3.07 2.13,-1.39 4.61,-2.79 6.6,-4.54 0.98,-0.26 1.69,-0.93 2.62,-1.37l0.76 -0.45c1.56,-0.32 2.06,0.11 1.5,1.33l-0.31 2.19c-1.74,1.02 -3.24,2.44 -4.8,3.72 -2.24,1.83 -4.47,3.69 -6.69,5.53 -3.43,2.85 -8.46,5.85 -10.58,9.89l0.01 0.04 -1.03 0.89 -0.01 -0.06zm-30.76 22.71c0.31,1.72 1.84,2.15 3.41,1.76l1.65 -0.6c-1.28,1.12 -2.46,2.35 -3.76,3.42 -2.46,2.05 -5.07,3.88 -7.66,5.75 -1.16,0.83 -5.77,3.34 -6.92,5.47l-1.27 -0.94 -0.54 -0.4c1.33,-1.04 3.46,-1.98 4.23,-2.48 1.56,-1.03 3.07,-2.12 4.55,-3.24 2.48,-1.9 5.71,-3.92 7.26,-6.66l-0.32 -0.33c-1.88,0.87 -3.32,2.48 -4.9,3.79 -2.05,1.71 -4.17,3.31 -6.33,4.88 -1.05,0.76 -2.36,1.49 -3.54,2.3 4.44,-3.83 9.1,-7.35 13.74,-10.96l-0.16 -0.22c-5.65,3.35 -10.83,7.62 -15.69,12.02l-1.72 -1.45c3.07,-1.84 5.98,-4 8.88,-6.09 2.09,-1.5 4.56,-2.92 6.62,-4.63l0.01 0 0.01 -0.01 0.07 -0.06 2.32 -2.03 0.06 0.7zm-0.1 -1.45l-0.47 0.44 -0.27 -0.04c-3.36,1.4 -6.35,4.24 -9.29,6.37 -2.8,2.02 -5.68,4.04 -8.3,6.31l-0.72 -0.78 -1.19 -1.47 0.02 -0.01c1.4,-1.95 4.24,-2.91 6.26,-4.08 1.69,-0.99 3.36,-2.02 4.98,-3.11 2.7,-1.81 6.16,-3.82 8.09,-6.45l-0.47 -0.47c-2.05,0.98 -3.77,2.72 -5.59,4.06 -1.87,1.38 -3.77,2.71 -5.7,3.99l-2.47 1.41c2.5,-2.07 4.98,-4.19 7.33,-6.41l-0.2 -0.28c-4.43,3.22 -8.78,6.68 -13.05,10.24l-0.91 -1.27c1.54,-1.28 4.42,-2.51 5.41,-3.12 1.9,-1.19 3.74,-2.44 5.54,-3.76 2.88,-2.12 6.64,-4.44 8.54,-7.53l0.7 -0.6c0.58,0.72 1.06,1.56 1.43,2.55 0.52,1.46 0.32,2.71 0.31,4.01zm-6.74 -9.5l2.48 0.89c-1.89,1.22 -3.54,2.85 -5.27,4.26 -2.54,2.06 -5.15,4.03 -7.83,5.92 -1.94,1.39 -4.41,2.59 -6.12,4.25l-0 0.01 -0.24 -0.49c5.02,-3.71 10.07,-7.4 14.92,-11.36l-0.14 -0.18c-4.96,3.37 -9.93,6.86 -14.83,10.46l0.25 -0.91 1.33 -0.83 1.75 -1.19c1.34,-0.94 2.63,-1.93 3.91,-2.96 2.56,-2.06 5.47,-4.19 7.2,-7.04l-0.32 -0.3c-2.29,1.35 -4.14,3.38 -6.16,5.09 -2.53,2.15 -5.23,4.06 -7.83,6.13l-1.04 0.85 -0.49 -1.68c1.38,-1.99 5.61,-4.84 6.62,-5.69 2.45,-2.07 5.02,-3.94 7.19,-6.3l-0.2 -0.25c-3.75,2.03 -6.98,5.07 -10.1,7.95 -0.81,0.76 -2.64,1.95 -3.66,3.28l0.02 -2.19 0.29 -0.44c2.82,-2.03 5.63,-4.07 8.4,-6.17l-0.15 -0.25c-1.67,1.08 -3.33,2.2 -4.98,3.3l2.2 -1.67c2.07,-1.76 4.38,-3.45 6.11,-5.56l0.24 0.52 0.56 0.31c2.09,-0.52 1.72,0.3 3.1,1.35 0.92,0.69 1.71,0.65 2.77,0.89zm-11.08 -0.79c1.26,-1.05 2.52,-2.1 3.78,-3.15l0.37 0.45c-2.89,1.74 -5.37,4.38 -7.89,6.61 -0.96,0.85 -2.3,1.75 -3.23,2.86l0.27 -0.7 0.06 -0.11 0 -0.01 0.51 -1.33c1.17,-1.51 3.77,-3.62 4.26,-4.07 1.47,-1.34 3.39,-2.57 4.51,-4.22l-0.34 -0.35c-2.68,1.18 -5.09,4.15 -7.09,6.24l-0.99 0.94 -0.79 -2.69 -2.12 -1.01 0.3 -0.22c1.52,0.39 3.09,0.37 4.64,-0.23l1.74 -1.05c1.07,-1.13 1.05,-2.56 3.05,-2.56l2.44 1.11c-1.24,1.07 -2.49,2.15 -3.73,3.22l0.27 0.27zm-15.26 -15.64c-0.28,0.61 -1.65,4.58 -3.31,1.57 -0.55,-0.97 0.13,-2.27 0.44,-3.2 0.45,-1.35 0.85,-2.33 0.71,-3.6l2.08 -0.39c1.58,-0.81 4.38,-4.62 6.31,-2.39l0.66 -0.07 0.28 0.79 0.33 -0.2 0.11 -0.88c1.32,0.13 1.9,0.74 1.64,1.86l-0.01 0.09c-2,1.28 -4.01,2.55 -6,3.83 -1.53,-0.37 -2.63,1.35 -3.22,2.6zm11.09 -4.48c-0.2,0.91 0.09,1.97 -0.68,0.43 -0.39,-0.8 -0.33,-1.75 -0.3,-2.71l2.05 -1.32 -0.51 1.39 -0.57 2.22zm-0.1 6l-1.36 -1.51 -0.3 -0.18 -1.68 -0.03 -0.66 -0.01 0.07 -0.35 2.97 -0.28 1.25 0.33 0.23 0.59 0.57 0.65 -1.09 0.8zm1.95 -0.56c0.65,0.15 0.39,-0.47 0.77,0.6 0.49,0.72 0.24,0.94 -0.77,0.65l-1.22 -0.13 -0.31 -0.22 1.36 -0.96 0.17 0.06zm-0.67 -9.34l-2.15 1.37c0.04,-1.07 -0.02,-2.11 -0.82,-2.88l-0.26 -0.19 1.99 -1.65c1.2,-1.1 2.38,-2.22 3.45,-3.43l-0.26 -0.33c-2,1.44 -3.8,3.13 -5.59,4.8l-0.34 0.31 -2.22 1.07c-0.93,-0.57 -1.89,-0.32 -2.87,0.22 4.74,-3.43 17.18,-12.72 18.44,-14.05l-0.22 -0.3c-4.64,2.22 -8.8,6.05 -12.93,9.09 -1.85,1.37 -3.71,2.73 -5.54,4.14 -0.81,0.63 -2.04,1.17 -2.06,2.32l0.09 0.17 0.13 0.07c-1.27,0.91 -2.52,1.74 -3.71,1.32l-0.57 0.57c0.52,2 -3.39,8.4 0.56,9.35 1.02,0.24 1.85,-0.38 2.45,-1.15l1.32 -2.76c2.05,-0.7 2.72,-0.58 2.01,0.33l-0.49 0.81 -1.23 2 0.07 0.58 0.74 1.22 -2.28 2.49c-0.73,0.94 -1.58,1.95 -2.09,3.06 -1.27,-0.43 -2.47,-1.11 -3.54,-2l0.13 0.02 2.44 -1.99c0.76,-0.72 1.63,-1.42 2.04,-2.39l-0.27 -0.35c-0.96,0.38 -1.63,1.13 -2.34,1.87 -0.78,0.8 -1.63,1.59 -2.13,2.61l0.03 0.15c-0.99,-0.83 -1.85,-1.8 -2.52,-2.89l1.89 -2 -0.36 -0.36 -1.88 1.74c-0.6,-1.12 -1,-2.32 -1.15,-3.55 2.09,-1.01 4.22,-2.78 5.33,-4.65l-0.2 -0.2c-1.05,0.77 -1.97,1.69 -2.97,2.52l-2.24 1.7 -0.04 -0.43 0.12 -2.64c1.51,-0.91 3.02,-2.01 4.3,-3.28l0.06 0.07 0.05 -0.19 0.85 -0.92 0.45 0.02c5.27,-4.57 10.85,-8.73 16.67,-12.59 2.71,-1.8 5.46,-3.52 8.26,-5.15 2.02,-1.17 4.28,-2.19 6.26,-3.5l-1.29 1.17 -0.86 2.13c-0.64,1.83 -2.02,2.77 -3.46,3.9 -3.91,3.06 -6.97,7.02 -8.89,11.61l-0.36 1.01zm24.24 -34.09c-4.65,1.39 -9.04,3.9 -13.33,6.1 -4.48,2.31 -8.87,4.79 -13.17,7.41 -4.3,2.62 -8.52,5.38 -12.62,8.3 -3.73,2.66 -7.67,5.38 -10.96,8.6 0.59,-2.55 1.3,-5.08 2.15,-7.58 5.48,-3.82 10.84,-7.79 16.43,-11.46 3.01,-1.97 6.07,-3.89 9.15,-5.75 2.76,-1.66 5.74,-3.12 8.43,-4.9 0.73,0.2 1.11,0.51 1.13,1.5l0.28 0.37c1.17,0.47 2.35,0.36 3.37,-0.46 1.05,-0.83 0.78,-1.7 1.35,-2.66 0.57,-0.96 1.87,-1.6 2.61,-2.58 0.81,-1.06 1.43,-2.38 2.71,-2.93l1.87 0.06 0.92 1.11 -0.22 2.53 0.67 0.27 2.56 -2.77c0.43,1.39 0.67,2.72 0.7,4.07 -3.63,1.41 -6.8,4.47 -9.52,7.15l0.19 0.19c2.92,-2.56 6.34,-4.43 9.31,-6.88 -0,1.18 -0.14,2.35 -0.46,3.59l0.29 0.5c1.35,0.31 1.12,0.18 0.86,1.26 -0.24,0.99 -0.56,1.71 -0.55,2.75l0.46 2.4 0.37 0.78c0.52,0.82 0.13,0.57 -1.15,-0.74 -1.68,-0.63 -1.79,-1.44 -0.33,-2.44l-0.12 -0.92 -2.14 -1.64 -0.42 -0.24c-2.29,0.24 -4.15,1.04 -5.89,2.56l0.09 0.69c-0.07,0.96 -0.13,1.9 -0.19,2.85l-0.69 0.56 -2.02 1.57 -1.41 1.02 1.64 -1.23 -0.22 -0.38c-2.96,0.69 -5.72,2.59 -8.33,4.14 -3.09,1.81 -6.13,3.74 -9.07,5.78 -5.5,3.82 -10.71,8.06 -15.69,12.53l-0.06 0.13 -0.06 -0.01c-1.81,1.24 -3.5,2.7 -5.19,4.08 -0.07,-1.24 -0.5,-2.31 -1.97,-2.87 2.88,-1.94 5.56,-4.34 8.31,-6.37 3.58,-2.65 7.22,-5.23 10.86,-7.8 3.49,-2.47 7.1,-4.77 10.74,-7.02 3.93,-2.43 8.15,-4.5 11.89,-7.18l-0.11 -0.28c-8.11,3.34 -15.64,8.91 -23,13.64 -3.9,2.51 -7.67,5.18 -11.39,7.94 -3.36,2.52 -7.26,5.03 -9.96,8.24l0.23 0.3 1.5 -0.93c-0.56,1.21 -1.31,2.19 -2.28,3.1l0.03 -0.63 -0.14 0 -0.06 0.82 -0.07 0.07 -0.04 0.11c0.33,-3.18 0.85,-6.35 1.56,-9.49 4,-2.5 7.7,-5.59 11.58,-8.27 4.13,-2.87 8.35,-5.64 12.65,-8.25 4.15,-2.53 8.39,-4.92 12.67,-7.22 4.42,-2.35 9.18,-4.23 13.44,-6.85l-0.15 -0.35zm-51.52 41.08l0.47 -0.07 1.99 -2.15 1.18 -0.6c0.92,0.57 0.65,1.61 0.59,2.57 -0.06,1 -0.04,1.89 0.03,2.75l-0.22 0.17 0.15 0.24 0.1 -0.04c0.16,1.29 0.51,2.52 1.3,3.86 1.97,3.34 5.15,5.88 9.02,6.35l-0.07 0.6c-4.2,2.7 -8.36,5.49 -12.39,8.43l0.18 0.3c4.14,-2.61 8.21,-5.41 12.2,-8.26l0.56 1.92 0.37 0.64 0.96 0.88 1.77 0.72c-4.98,3.29 -9.9,6.67 -14.68,10.2 -2.83,-9.25 -4.15,-18.97 -3.52,-28.52zm30.64 69.74c-2.86,-2.34 -5.55,-4.89 -8.06,-7.62l-0.61 -0.71c4.24,-3.62 8.48,-7.28 12.72,-10.92l0.86 -0.72 0.07 0.6c0.37,2.63 1.48,5.12 2.67,7.54 -3.37,3 -6.7,6.02 -10,9.01l0.19 0.19c3.41,-2.73 6.83,-5.5 10.25,-8.29l1.31 2.7 0.28 0.62 0.24 0.53 0.48 1.06c-2.14,1.92 -4.26,3.84 -6.37,5.76l0.35 0.35c2.12,-1.75 4.26,-3.53 6.39,-5.3 0.66,1.46 1.34,2.91 2.11,4.32l-0.26 0.41 0.35 0.26 0.18 -0.17 0.26 0.43c-1.58,1.45 -3.15,2.92 -4.65,4.42l0.31 0.4c1.66,-1.24 3.29,-2.54 4.92,-3.85l1.19 1.71c0.95,1.24 1.52,2.47 1.98,3.87l-1.83 1.8c-3.2,-1.44 -6.44,-2.99 -9.73,-4.18 -1.86,-1.4 -3.79,-2.72 -5.59,-4.2zm91.22 -128.87l0.38 -0.22 1.44 -0.64 -0.81 1.42 -1.01 -0.56zm-88.83 2.29l-0.07 0.35 -0.02 0.16 0.37 1.84 0.96 0.98c-4.86,1.96 -9.51,5.33 -13.47,8.71l0.26 0.33c4.53,-2.84 9.37,-5.51 13.67,-8.67l0.06 -0.1c-0.2,0.99 0.04,2.01 0.82,2.53 -3.63,1.92 -7.09,4.57 -10.51,6.72 -4.22,2.65 -8.5,5.2 -12.54,8.09l0.1 0.19c4.62,-2.33 9.01,-5.06 13.42,-7.74 3.61,-2.2 7.7,-4.28 11.05,-6.94 2.5,-0.18 1.35,-3.15 2.8,-4.38l-0.07 -0.52 -1.18 -0.48c-1.19,-1.64 1.57,-2.25 2.56,-2.31 0.95,-0.04 2.54,-0.05 2.7,1.27l-2.05 3.97 0.35 0.62c1.78,-0.16 6.53,0.19 7.09,-2.21l-0.19 -1.95 0.5 -1.74 -0.23 -0.47 0.08 0c1.92,-0.72 3.87,-1.56 5.62,-2.66l2.74 -0.11 0.42 -0.43 0.2 -2.2 1 -2.43 1.37 -0.4 1.69 -1.71c5.56,-1.02 11.24,-1.48 16.88,-1.33 1.24,0.03 2.45,0.13 3.67,0.22 -4.86,1.38 -9.57,3.96 -14.18,5.98l0.39 0.67c4.69,-2 9.87,-3.68 14.22,-6.36l0.07 -0.26c2.93,0.24 5.83,0.66 8.68,1.21 -1.65,-0.06 -3.01,1.33 -4.06,2.61l-1.4 2.4c-0.39,1.76 0.95,2.84 -2.27,1.86l-0.3 0.11c-0.55,1.23 -0.74,2.13 -1.93,2.76l0 0.72 1.4 0.62c-1.4,1.83 -4.74,2.33 -6.72,3.2 -2.01,0.89 -4,1.99 -5.59,3.54l-1.59 1.88c-0.59,0.88 -1.25,3.01 -2.26,2.22l-0.16 -4.96 0.87 -2.27 0.24 0.03c2.15,-1.17 4.15,-2.61 6.26,-3.87 1.87,-1.11 3.93,-2.04 5.58,-3.46l-0.23 -0.39c-2.24,0.57 -4.29,1.98 -6.22,3.22 -1.84,1.17 -3.69,2.41 -5.31,3.88l2.08 -2.21 0 -0.66 0.22 -2.22c2.06,-1.13 4,-2.48 6.09,-3.58 2.13,-1.15 4.43,-2.01 6.49,-3.28l-0.12 -0.3c-4.09,0.7 -8.65,3.22 -11.91,6.04l0.01 -1.24 -0.82 -0.6 -0.63 -0.04 -1.73 0.02c-0.98,0.19 -1.11,-0.38 -0.39,-1.7l-0.06 -0.47 -0.54 -0.13 0.86 -0.63c0.78,-1.01 -0.22,-2.56 1.59,-2.75l0 -0.27 -1.85 0.43 -0.09 0.35 -1.46 2.54 -0.06 0.52c1.36,0.43 0.07,1.12 0.02,2.38l0.26 0.26c1.71,0 4.41,-0.7 3.1,1.82l-0.93 1.32c-0.24,1.89 1.67,1.13 0.16,3.06 -2.38,3.01 -3.11,7.02 -1.57,10.58l0.41 0.17c1.33,-0.55 1.53,-1.63 2.23,-2.83 1.28,-2.2 3.3,-3.74 5.52,-4.93 2.83,-1.5 7.54,-1.89 9.31,-4.83l-0.34 -0.59 -0.61 -0.22 0.25 -0.33c0.31,-2.84 1.7,-1.93 3.39,-2.11l0.26 -0.34c-0.8,-2.47 2.48,-7.17 5.25,-6.74l0.16 -0.43c8.91,1.82 17.43,5.09 25.59,9.43l0.09 0.64c2.31,0.77 4.48,1.74 6.56,2.8l-1.34 1.81c-0.51,1.57 0.29,4.04 -2.57,3.46l-0.54 0.55c-1.2,2.15 -1.77,2.6 -1.76,1.32l-0.11 -1.48 -0.66 -0.38c-1.63,-1.07 -1.99,-1.87 -1.06,-2.39l0.33 -0.25 0.5 -0.45 0.32 -1.53 -0.78 -0.93c-0.49,-0.31 -4.54,-0.71 -3.69,-1.68l-0.3 -0.72c-3.83,0.27 -7.44,1.22 -10.91,2.85l0 0.59 -0.81 3.12 -0.78 0.76 -0.35 0.33c-1.18,1.05 -1.77,0.98 -3.48,0.82l-0.32 0.24 0.17 2.37 1.06 1.37c0.15,0.86 -0.53,1.36 0.1,2.41l0.5 0.07c1.02,-1.44 2.11,-1.48 3.26,-0.13 1.5,0.21 2.09,0.98 1.74,2.29l0.4 0.29c0.94,-0.17 1.89,-0.34 2.84,-0.5l0.22 -0.22c0.28,-1.15 -0.39,-0.98 -0.99,-1.73 -1.57,-1.96 0.74,-1.01 1.52,-2.12l-0.31 -1.83 -1.29 -0.76 0.85 -1.59c0.96,-1.48 0.86,-2.19 2.56,-0.8 2.15,1.76 -0.02,1.04 0.69,2.77 0.69,1.67 4.56,1.74 4.64,3.58l-0.05 0.19 -0.77 1.29c-1.43,1.52 -4.3,3.25 -5.26,3.69 -1.07,0.46 -2.76,0.6 -3.93,0.52 -1.88,-0.13 1.09,1.76 -2.31,-0.61 -1.84,-1.29 -1.56,-1.61 -0.99,-3.59l-0.49 -0.38 -1.8 1.9 0.04 2.65 -2.29 1.48c-1.19,1.03 -1.56,1.68 -3.12,1.69 0.46,-1.22 0.02,-2.57 0.44,-3.79 0.34,-1 1.32,-1.27 0.82,-2.32l-0.83 -0.79c-0.86,-0.88 -0.93,-1.7 -1.5,-2.71l-1.38 -1.08 -0.41 0.23c-0.51,0.95 -0.88,1.81 -0.85,2.79l-0.12 0.39 0.25 0.45 0.03 0.13 0.09 0.06c0.54,0.9 1.13,1.81 1.15,2.92 0.04,1.41 -0.98,2.03 -1.3,3.24l0.29 1.59 2.4 0.07c-0.48,1.83 -1.67,2.44 -3.57,1.81l-0.24 0.55c1.73,0.84 3.48,3.13 1.61,5.22 -1.11,1.24 -3.28,1.22 -4.47,0.09l-0.56 0.33c0.59,2 -0.08,3.14 -0.63,4.96l-0.3 0.74 0.22 1.35c0.69,1.13 4.21,1.11 4.17,2.51l0.62 0.09c0.59,-1.47 0.94,-0.79 2.04,-1.5 0.93,-0.61 1.2,-1.78 1.57,-2.73 1.01,-2.6 2.46,-6.11 5.87,-5.98 1.99,0.07 2.56,1.3 3.61,2.5 0.84,0.94 4.93,3.63 0.4,4.62l-0.07 0.6c2.96,2.21 4.85,-1.44 4.78,-4.02l-0.16 -0.28c-0.93,-0.5 -3.8,-1.87 -3.79,-3.02 0.69,-1.43 1.13,-1.56 1.3,-0.42l0.44 0.69 0.83 0.59 1.13 0.45 -0.13 1.35 0.24 -0.02 0.43 -0.95 1.04 1.76 0.32 1.06c0.68,1.98 2.18,4.62 4.62,3.28l0.14 -0.54 -1.93 -2.74c1.7,-0.31 2.58,0.09 2.66,1.23l0.23 1.33c0.3,1.21 0.81,2.13 1.65,3.05l0.48 0.07 2.73 -1.26c3.17,0.13 1.87,7.69 -1.93,5.15l-0.64 0.37c0.42,3.26 -4.27,-0.31 -4.55,-0.43l-1.4 -0.39c-0.96,-0.06 -1.83,0.24 -2.26,1.14l-0.07 1.63 -1.56 -0.88 -2.45 -1.22 -0.86 -2.02 -0.45 -0.35c-1.78,-0.07 -0.93,-3.17 -0.84,-4.13l-0.38 -0.39c-0.88,-0.1 -2.46,0.68 -4.05,1.33l-0.22 -0.21 -1.5 0.83c-1.3,0.37 -2.4,0.35 -2.78,-0.78l-0.62 -0.08c-1.48,2.09 -4.14,2.51 -6.33,1.36l-0.88 0.51 -0.28 2.14 -1.96 -0.02 -0.39 0.53c0.09,1.38 -0.02,2.7 -0.28,4.06l-1.19 2.05c-1.07,0.79 -2.12,1.74 -1.1,1.91 -1.51,2.73 -2.56,5.85 -4.45,8.32l0 0.45c0.52,0.99 0.87,2 1.11,3.02 -3.72,3.37 -7.3,6.93 -10.93,10.35 -3.81,3.58 -7.61,7.17 -11.37,10.8 -1.26,0.01 -2.04,0.63 -3.27,1.02 -2.88,0.88 -3.3,-0.34 -3.36,-1.9 9.85,-8.58 19.63,-17.37 28.98,-26.48l-0.17 -0.17c-9.84,8.28 -19.43,16.98 -28.82,25.81l-0.08 -1.57c-0.27,-1.59 -0.93,-3.11 -1.89,-4.41l-0.15 -0.18c7.93,-6.83 15.61,-14.04 23.1,-21.3l-0.16 -0.16c-7.89,6.82 -15.74,13.82 -23.24,21.1l-1.62 -1.56 -0.2 -0.15 -0.79 -0.48c-1.24,-0.62 -2.74,-0.71 -4.02,-1.19 6,-4.94 12.03,-9.87 17.95,-14.91l-0.13 -0.13c-6.12,4.89 -12.14,9.92 -18.17,14.91 -0.8,-0.35 -1.48,-0.89 -1.91,-1.9l-0.52 -0.21c-1.79,0.45 -1.88,-0.06 -2.59,-0.88 7.64,-6.36 15.3,-12.74 22.67,-19.39l-0.19 -0.19c-7.77,6.2 -15.3,12.71 -22.82,19.22l-0.43 -0.39c-0.97,-0.72 -2.26,-1.18 -3.49,-0.96 -1.48,0.24 -2.09,1.2 -2.89,2.32 -0.95,1.33 -2.15,1.73 -3.8,1.75 -1.75,0.02 -2.52,-0.57 -2.64,-1.48l1.17 -1.53 -0.31 -0.31 -0.59 0.3 0.46 -0.98 -0.28 -0.68c-1.21,-0.39 -2.41,-0.67 -3.64,-0.9 0.43,-0.86 0.67,-1.74 0.59,-2.75 -0.08,-1.2 -1.07,-2.23 -0.84,-3.38 0.31,-1.63 3.47,-3.45 1.12,-4.86l-0.38 -0.16c1.9,-1.22 3.8,-2.45 5.71,-3.68l-0.04 0.5 0.15 1.9 1.43 1.93c-1.54,-0.26 -4.98,-0.63 -4.72,1.14l-0.35 0.7 0.27 0.35 3 0.28 1.27 1.33 0.07 0.04c-1.97,1.44 -3.94,2.87 -5.91,4.28l0.22 0.38c2.02,-1.45 4.06,-2.88 6.11,-4.3l1.54 0.91 -0.29 0.26 0.22 0.39c0.27,-0.06 1.91,-0.52 1.33,0.59l-1.36 0.08 0.09 0 0.18 -0.22 -1.28 -0.56 -0.44 0.44c0.12,1.12 0.73,1.39 1.88,1.54l2.12 -1.07 -0.33 -1.7c0.94,-0.69 1.47,-2.09 0.38,-2.91l-0.52 -0.22c4.53,-3.19 9.04,-6.41 13.43,-9.76l-0.15 -0.25c-4.8,3.18 -9.49,6.55 -14.16,9.93l-0.78 -0.48 -1.28 -1.05 0.24 -0.29c0.37,-2.39 1.04,-4.72 1.96,-6.94l0.24 -0.15 -0.09 -0.16 -0.04 0.02c1.01,-2.35 2.33,-4.57 3.99,-6.59 2.45,-2.99 6.57,-4.91 8.17,-8.45 0.6,-1.33 1.12,-2.37 2.27,-3.4 1.01,-0.93 2.19,-1.65 3.21,-2.54 0.89,-0.76 1.99,-1.63 1.93,-2.96l-0.51 -1.34 2.2 -1.49c1.93,-0.56 2.58,0.55 3.94,1.13 -2.14,2.54 0.56,6.34 3.96,4.52l0.09 -0.69c-1.75,-2.26 -1.71,-5.06 -0.04,-7.35l-0.25 -0.61c-2.15,-0.5 -1.11,-2.34 -1.13,-4.08 -0.02,-1.77 -0.41,-3.44 -1.01,-5.09l-0.65 -0.17 -2.2 2.37c0.31,-1.96 0.65,-4.11 -2.04,-3.99 -3.65,0.17 -4.28,4.91 -7.39,5.99l-0.28 0.48c0.69,3.82 -3.35,3.7 -3.4,1.63l-0.28 -0.37 -0.67 -0.13 0.44 -0.28 -0.14 -0.5 1.45 -1.96c0.65,-1.77 1.03,-3.62 2.83,-4.62 1.52,-0.84 3.52,-1.23 5.21,-1.37 1.47,-0.11 3.13,0.19 4.37,-0.8l0.87 -1.25 0.01 0 0.05 0.41 1.8 1.83 -0.34 0.24 0.33 0.56 0.5 -0.31 1.48 1.49 0.54 0c2.16,-2.24 7.32,-11.16 2.23,-12.96l0.13 -0.24 0.33 -1.86c0.39,-1.28 1.25,-1.62 2.4,-2.07 1.7,-0.64 3.88,-0.93 4.4,-2.97l-0.24 -0.06c-0.77,2.41 -4.07,2.03 -5.87,3.07l-2.29 3.85 -0.12 0.88c2.9,0.46 2.68,4.06 2.04,6.13 -0.4,1.29 -1.07,2.52 -1.84,3.62 -0.99,1.42 -1.28,1.58 -2.53,0.67l1.76 -1.37 -0.26 -0.32 -2.09 1.24 -1.5 -1.97 0.15 -0.75 -0.06 -0.2 0.22 0c1.71,-0.89 3.48,-2.02 4.9,-3.33l-0.18 -0.24c-1.78,0.78 -3.52,1.95 -5.03,3.16l-0.02 0.03 -0.93 -1.1 -0.49 0.38c0.96,4.04 -4.66,3.42 -6.66,3.81l-0.83 0.21c2.16,-1.39 4.27,-3.04 6.02,-4.79l-0.22 -0.3c-2.74,1.46 -5.51,3.55 -7.8,5.7l-1.62 0.7 -1.77 1.59 -0.32 1.44c-0.61,2.2 -1.22,3.17 -3.02,4.37l-0.17 0.39c-2.56,1.28 -5.01,2.91 -7.43,4.37 -3.24,1.96 -6.44,3.99 -9.59,6.08 -5.41,3.57 -10.78,7.29 -15.79,11.43 1.15,-3.29 2.53,-6.52 4.16,-9.67 4.91,-9.5 11.76,-17.94 20,-24.68 1.63,-1.26 3.32,-2.43 5.04,-3.56zm14.32 -4.6l-0.77 -0.03c1.01,-1.39 2.48,-2.4 4.19,-2.26 1.63,0.15 1.39,0.88 2.6,1.75l0.88 0.46c-1.65,0.82 -3.28,1.72 -4.91,2.55l-0.09 0.12 -1.39 -1.71 -0.51 -0.89zm12.28 -6.49l-1.27 0.64 -0.94 1.17 -0.15 2.47c-0.44,1.13 -1.97,1.46 -3.02,0.98 -1.03,-0.48 -1.12,-1.2 -1.85,-1.94 -2.19,-2.2 -5.96,1.51 -7.26,3.35l0.46 0.81 0.92 0.11c-0.03,0.94 1.28,1.51 1.52,2.41l0.01 2.03c-0.23,1.83 -0.57,1.97 -1.87,2.46 -0.95,0.35 -2.19,0.35 -3.29,0.38 0.73,-1.45 1.44,-2.9 2.21,-4.34l-0.15 -0.56c-1.41,-1.02 -2.91,-1.53 -4.67,-1.2 -1.19,0.23 -3.39,1.22 -3.75,2.53l0.62 1.47 1.78 0.39 -0.24 0.64c0.12,2 -1.46,-1.29 -2.57,0.76l-0.39 -0.96c-1.16,-0.96 -1.64,-2.07 -1.54,-3.28 7.78,-4.86 16.42,-8.34 25.39,-10.32zm-25.78 153.98l-0.24 0.52 -1.1 -0.83 0.51 -0.7 0.21 0.65 0.62 0.37zm97.52 -2.22l-1 0.59 1 -0.59zm6.16 -4.04c-1.15,0.83 -2.34,1.61 -3.54,2.38 1.19,-0.78 2.39,-1.57 3.54,-2.38zm-7.74 -145.63l0.11 -0.22 2.76 1.74c-0.94,-0.52 -1.9,-1.04 -2.86,-1.52zm-0.41 0.83c8.25,5.93 15.94,12.26 22.38,20.21 6.62,8.18 11.83,17.56 15.22,27.5 1.23,3.6 2.19,7.26 2.92,10.97 1.61,9.98 1.64,20.24 0.15,30.22 -1.45,9.65 -4.41,19.09 -8.81,27.81l-0.55 1.04c-0.7,1.34 -1.43,2.65 -2.2,3.96l-1.02 1.65c-0.64,1.03 -1.3,2.05 -1.99,3.04 -10.61,11.93 -23.5,21.77 -38.38,27.84 -16.81,6.85 -35.66,8.69 -53.51,5.52 -10.49,-1.87 -20.14,-5.56 -29.78,-10.02l-0.65 0.14 0.82 -1.13c1.52,-2.15 2.93,-4.35 4.22,-6.63l0.04 0.01c1.87,1.07 3.79,2.05 5.74,2.97l-1.3 1.27 0.31 0.3 1.45 -1.35c6.72,3.12 13.86,5.32 21.18,6.53l2.48 0.56c5.84,1.09 11.84,1.49 17.76,0.86 3.63,-0.39 7.89,-1 11.49,-2.56l0.85 -0.19c9.48,-2.43 18.3,-6.63 26.12,-12.16l0.17 -0.08 0.07 -0.07c10.25,-7.31 18.7,-17 24.62,-28.11 0.96,-1.72 1.87,-3.46 2.69,-5.24 10.97,-23.72 9.67,-52.44 -3.34,-75.11 -3.1,-5.41 -7.26,-10.95 -12.28,-15.32l0.67 -0.6 -0.59 -0.6 -0.75 0.65c-3.31,-2.78 -7,-5.03 -10.99,-6.41l-0.59 -0.38 0.56 -0.19c1.16,-1.44 2.16,-3 3.19,-4.54l1.64 -2.36zm-4.71 -1.37l0.46 -0.61c0.98,0.35 2.11,0.3 3.08,-0.11l0.3 0.17 -0.56 0.24 -0.95 1.39 -2.35 1.05 -1.79 0.78c0.61,-0.97 1.22,-1.93 1.81,-2.91zm-1.78 197.3c0.95,0.72 1.69,1.73 2.06,2.88l0.46 1.35 0.01 2.02 -2.1 -0.13 0.83 -2 -0.37 -0.28c-0.85,0.52 -1.33,1.24 -1.43,2.23 -1.18,-0.06 -2.35,-0.14 -3.52,-0.17 1.19,-0.89 2.06,-2.37 2.69,-3.68l-0.27 -0.22c-1.17,0.95 -2.45,2.17 -3.03,3.59l0.08 0.3 -1.65 -0.02c0.91,-0.67 1.66,-1.76 2.08,-2.71l-0.37 -0.37c-1.17,0.62 -2.59,1.76 -2.98,3.06l0 0c-2.17,0 -4.33,0.02 -6.5,0.04 1.28,-0.79 2.61,-1.88 3.28,-3.19l-0.34 -0.33c-1.4,0.73 -2.67,2.02 -3.76,3.15l-0.07 0.39 -1.67 0.02 1.62 -1.07 2.02 -1.93 -0.28 -0.35c-1.07,0.45 -2.04,1.18 -2.95,1.89l-1.4 1.47 -1.61 0.01c1.33,-0.83 2.7,-1.78 3.5,-3.09l-0.32 -0.32c-1.65,0.76 -3.02,2.25 -4.38,3.42l-0.44 0.01 -0.74 0 0.26 -0.05 1.57 -1.89 -0.36 -0.37 -1.89 1.57 0.33 0.74 -2.27 0.01c1.27,-0.72 2.48,-1.93 3.28,-3.14l-0.31 -0.32c-1.31,0.68 -2.63,1.78 -3.49,2.98l0.17 0.48c-1.24,0 -2.48,0.01 -3.71,0.01l1.79 -2.13 1.49 -2.11 -0.27 -0.26c-1.63,0.62 -3.2,2.82 -3.93,4.37l-0.01 0.15 -1.71 0c1.29,-1.25 2.88,-2.61 3.74,-4.16l-0.2 -0.28c-1.83,0.73 -3.26,2.67 -4.17,4.35l-0.02 0.09c-1.17,0 -2.34,0 -3.51,0.01l0.07 -0.3 0.2 -0.21 0.72 -0.82 0.91 -1.33 -0.36 -0.36 -1.58 1.27 -0.94 1.16 0.14 0.58c-1.15,0.01 -2.3,0.01 -3.46,0.02 1.38,-1.05 2.68,-2.55 3.52,-4.03l-0.35 -0.35c-1.5,0.96 -3.04,2.45 -3.98,3.95l0.02 0.43 -2.54 0 -0.16 -0.09 1.12 -0.76 0.96 -0.87 2.09 -2.15 -0.21 -0.28c-1.62,0.7 -3.12,2.06 -4.24,3.41l-0.33 0.74 -1.66 0.01c0.82,-1.19 1.78,-2.26 2.63,-3.41l-0.22 -0.21c-1.4,0.91 -2.39,2.16 -3.41,3.48l-0.04 0.15 -1.06 0 -0.37 0.01 1.91 -2.27 -0.35 -0.35c-1.03,0.56 -1.84,1.56 -2.42,2.58l-0.01 0.04c-1.03,0 -2.06,0.01 -3.08,0.03 1.24,-1 2.49,-2.25 3.3,-3.55l-0.28 -0.28c-1.49,0.9 -2.93,2.4 -3.92,3.83l-0.96 0.01c0.96,-0.89 1.84,-1.94 2.47,-3.05l-0.26 -0.26c-1.24,0.87 -2.37,2.07 -3.24,3.31l-2.28 0.02c1.25,-0.85 2.66,-2.1 3.23,-3.48l-0.24 -0.2c-1.43,0.61 -2.73,2.14 -3.57,3.43l0.01 0.27 -2.4 0.02 1.15 -1.24 1.83 -1.57 -0.15 -0.25c-1.49,0.26 -2.83,1.69 -3.48,3.07l-1.72 0.01 0.72 -1.2 -0.28 -0.27 -1.03 0.7 -0.66 0.79 -1.06 0.01 2.29 -2.82 -0.26 -0.26c-0.99,0.57 -1.73,1.54 -2.41,2.44l-0.43 0.65 -0.78 0.01 0.62 -0.73 0.75 -1.31 -0.28 -0.17 -1.67 1.99 -0.15 0.22 -1.89 0.02 -0.04 -0.08c0.87,-0.91 1.74,-1.81 2.58,-2.76l-0.18 -0.23c-1.39,0.7 -2.44,1.76 -3.27,3.07l-1.39 0.02c1,-1 2.08,-1.9 3.08,-2.89l-0.17 -0.27c-1.62,0.62 -2.81,1.68 -4.01,2.93l-0.09 0.23 -1.28 0.02 -1.26 0.01c1,-0.99 2.97,-2.58 3.21,-2.85l-0.15 -0.25c-0.57,0.23 -3.13,1.91 -3.89,3.12l-1.13 0 1.03 -1.64 -0.34 -0.2 -2.13 1.85 -1.23 0.01 1.83 -2.4 -0.22 -0.18 -1.88 2.03 -0.57 0.57 -1.69 0.02c1.02,-0.87 2.04,-1.83 2.74,-2.91l-0.2 -0.2c-1.28,0.77 -2.46,1.97 -3.5,3.12l-2.32 0.03c1.28,-1 2.67,-2.33 3.6,-3.62l-0.2 -0.2c-1.47,0.75 -3.01,2.27 -3.87,3.66l-0.01 0.17 -1.13 0.02c1.04,-0.95 2.35,-2.39 2.53,-2.68l-0.23 -0.23c-1.12,0.52 -2.03,1.41 -2.91,2.25l-0.76 0.7 -1 0.02 2.24 -2.24 -0.24 -0.24c-1.15,0.64 -2.19,1.56 -3.14,2.51l-2.54 0.14 1.56 -1.15 1.87 -1.88 -0.19 -0.24c-1.17,0.35 -2.16,1.49 -3.05,2.29l-1.02 1.01 -0.63 0.04 1.5 -1.35 2.01 -2.11 -0.22 -0.28 -2.17 1.7 -1.97 1.8c1.46,-2.54 3.44,-4.49 6.41,-5.37 2.3,-0.69 4.73,-0.42 7.06,-0.82l0.79 0.01 0.05 -0.01c2.19,0.43 4.53,0.38 6.77,0.37l0.02 0.06 0.19 -0.02 0.02 -0.06 0.63 0c1.91,0.02 3.81,0.01 5.73,0.01l0.07 0.14 0.22 -0.13 0 -0.01c1.25,0 2.5,0.01 3.74,0.01 6.51,0.01 13.02,0 19.53,0 6.32,0 12.63,0 18.96,0 3.25,0 6.5,0 9.76,0 3.54,0 6.83,-0.52 10.33,-0.82l0 -0.66 -0.05 -0.01 -0.09 -0.32c1.57,-0.21 3.13,0.05 4.51,1.11zm-95.19 7.77l0.04 -0.09 0.19 0.04 -0.04 0.04 -0.26 0.06 0.08 -0.06zm0.49 -0.18l0.21 -0.2 0.64 0.03 -0.85 0.17zm140.63 -170.53c-7.5,-18.34 -20.14,-35.16 -39.81,-40.94l-1.24 -0.21c-3.01,3.8 -6.62,7.72 -8.93,12.05 -20.51,-11.94 -46.55,-14 -68.85,-6.23 -6.48,2.27 -12.62,5.35 -18.26,9.12l-0.26 0.17c-13.07,8.83 -23.39,21.45 -28.87,36.56 -2.97,8.2 -4.52,17.19 -4.29,26.05 -0.74,18.02 4.42,36.25 15.63,51.21 1.82,2.44 3.81,4.69 5.88,6.87l0.29 0.3c1.62,1.68 3.3,3.28 5.04,4.8 2.54,2.51 5.3,4.93 8.26,6.85 -1.95,3.1 -3.85,6.22 -5.71,9.36 -1.11,1.13 -2.4,2.33 -2.8,3.73l-0.14 1.19 0.07 0.04 0.39 0.22c9.88,6 22.03,9.32 33.27,11.49 4.48,0.87 9.03,1.46 13.61,1.83l-0.08 0.06 -0.14 0.96 0.09 0.2c-0.88,2.66 -0.27,6.15 -0.26,8.85 0.02,3.86 0.09,7.72 0.15,11.57 -6.17,0.11 -12.35,0.21 -18.51,0.49l-0.05 -0.09c-1.91,-0.02 -3.43,0.1 -5.35,-0.19 -1.01,-0.15 -1.96,-0.09 -2.97,0.08l-1.78 0.46 -0.14 -0.1 -0.35 0 -1.28 2.43c-0.24,0.94 -0.24,1.87 -0.06,2.79l-0.2 0.15c-1.62,-0.28 -3.33,-0.23 -5,0.13 -4.2,0.28 -8.82,3.38 -8.98,7.57l-1.01 0.06 0 0.32 1.01 0.06 0.01 0.37 0.15 0.21 -0.17 0.04 0 1.22c3.56,1.19 8,0.54 11.72,0.55 4.24,0 8.48,0 12.72,0 8.28,0 16.57,0 24.85,0 8.28,0 16.57,0 24.85,0 8.42,0 17.06,0.54 25.43,-0.36l0.12 -0.03 0.13 -0.03 0.18 -0.09 0.09 -0.07 0.13 -0.15 0.04 -0.09 0.06 -0.19 0.01 -0.15 -0 -0.12 -0.07 -0.21 -0.04 -0.07 -0.13 -0.16 -0.1 -0.08 -0.17 -0.08 -0.14 -0.04 -0.12 -0.03 -0.93 -0.08 -0.31 -0.15 -2.09 -0.17 2.28 -0.14 1.15 -0.74 -0.57 -2.49c0.49,-1.88 -1.8,-4.41 -3.19,-5.25 -2.01,-1.23 -4.56,-1.29 -6.58,-0.18 -0.99,-0.09 -1.97,-0.14 -2.97,-0.19l1.01 -1.39 -0.19 -0.15 -1.35 1.5 -1.2 -0.06 1.19 -1.75 -0.24 -0.18 -1.8 1.92 -1 -0.01 1.54 -2 -0.22 -0.17 -2.41 2.15 -1.15 -0.02 1.5 -2.26 -0.23 -0.18 -1.54 1.54 -0.67 0.91 -1.98 0.03c0.93,-0.71 1.76,-1.72 2.12,-2.74l-0.25 -0.2c-1.06,0.74 -2.11,1.89 -2.92,2.95l-1.84 0.04c1.06,-0.89 2.2,-1.78 2.98,-2.87l-0.19 -0.24c-1.42,0.58 -2.57,1.91 -3.51,3.14l-1.93 0.04 0.06 -0.04 0.49 -0.48 0.8 -0.82 1.34 -1.63 -0.2 -0.2 -1.43 1.21 -1.59 1.65 -0.12 0.32 -1.48 0 -0.02 -0.11 0.11 -0.07 0.54 -0.39 0.62 -0.48 1.4 -1.49 -0.2 -0.26 -1.67 0.96 -1.52 1.37 0 0.48c-0.96,0 -1.91,0 -2.87,0 1.32,-0.92 2.87,-1.9 3.89,-3.1l-0.13 -0.23c-1.59,0.48 -3.23,1.93 -4.41,3.09l-0.06 0.24 -2.3 0 2.07 -2.06 -0.26 -0.33c-1.1,0.45 -2.07,1.47 -2.89,2.38l-1.29 0 1.65 -1.99 -0.25 -0.24c-1.03,0.34 -1.91,1.36 -2.59,2.23l-1.34 0 0.59 -0.56 1.39 -1.51 -0.22 -0.28c-1.13,0.18 -2.14,1.28 -2.72,2.35l-1.3 0 0.79 -0.81 1.39 -1.45 -0.17 -0.3c-1.24,0.17 -2.4,1.56 -3.23,2.55l-1.83 0 2.03 -2.05 -0.26 -0.26 -1.64 1.13 -1.48 1.17 -1.53 0 0.44 -0.42 1.28 -1.45 -0.2 -0.2 -2.48 2.07 -1.22 0 0.34 -0.34 1.22 -1.18 -0.11 -0.21 -2.33 1.73 -1.3 0 0.43 -0.37 1.65 -1.9 -0.25 -0.25 -1.87 1.38 -1.13 1.14 -1.71 0 0.91 -0.87 1.65 -1.68 -0.26 -0.33 -2.13 1.26 -1.46 1.61 -2.68 0 0.78 -0.76 2.05 -1.75 -0.19 -0.31 -2.24 1.42 -1.28 1.41 -1.67 0 0.84 -1.07 -0.23 -0.23 -1.67 1.31 -1.26 0 1.18 -1.17 -0.17 -0.3 -2.17 1.47 -1.48 0 1.7 -1.71 -0.2 -0.28c-1.01,0.26 -1.98,1.17 -2.83,1.98l-2.19 0 2.06 -1.81 -0.15 -0.25 -2.28 1.52 -0.51 0.54 -2.37 0 1.11 -1.13 -0.5 -0.5 -1.9 1.64 -1.53 -0.01 0.17 -0.11 -0.34 -0.58 -1.02 0.69 -1.03 0 0.66 -1.05 -0.19 -0.15 -1.42 1.2 -2.17 0.15 0.29 -0.3 1.62 -1.88 -0.19 -0.24c-0.96,0.24 -1.91,1.1 -2.68,2.04l-0.2 -1.35 0 -0.06 0.29 -0.18 1.21 -1.26 -0.14 -0.24 -1.2 0.62 0.09 -0.45 1.49 -0.6 1.05 -0.13c9.07,0.73 18.24,0.46 27.37,0.24l0.85 -0.02c1.23,-0.03 2.45,-0.06 3.68,-0.08 1.81,-0.04 3.63,-0.04 5.45,-0.06l0.81 0c8.59,-0.06 17.22,0.01 25.73,-0.78l0.37 -0.5c2.58,0.57 4.74,2.2 5.69,4.8l0.99 -0.42c-1.3,-2.95 -4.36,-5.13 -7.64,-5.02l-0.22 0.24c-8.24,-0.69 -16.65,-0.33 -24.96,-0.02l-0.1 -2.27c0.41,-3.04 0.35,-6.09 0.34,-9.19 -0.01,-2.85 0.45,-6.33 -0.61,-9.07l-0 -0.38c3.52,-0.02 7.04,-0.19 10.52,-0.52 22.07,-2.12 44.33,-10.32 59.72,-26.74 13.2,-14.08 21.62,-32.85 24.1,-51.94 2.44,-18.84 -1.54,-38.26 -8.69,-55.71z"/>
    <path class="fil0" d="M1323.92 34.55l0.02 0.77 -0.52 0.45 -1.2 0.4 -0.93 0.47 -0.92 -0.31 1.66 -1.35 0.35 -1.09c0.64,-1.36 1.44,-0.19 1.54,0.66zm-1.72 -2.29c-1.16,0.53 -0.61,1.92 -1.54,2.57 -0.71,0.5 -1.63,1 -1.19,2.04l0.55 0.31 0.7 -0.08 -0.39 0.52 0.24 0.31 1.24 -0.57 0.04 0.01 0.14 -0.12 0.18 -0.09 2.25 -0.65 0.33 -0.33c0.22,-1.12 0.56,-2.36 -0.28,-3.34l-2.26 -0.6z"/>
    <path class="fil0" d="M1317.73 20.21l0.39 0.69 -1.22 0.98 -0.89 -1.62c0.47,-0.72 1.09,-1.12 1.72,-0.05zm0.94 1.12l1.68 -0.06 0.44 0.84 -0.41 0.95 -0.88 0.1 -0.95 0.87 -1.05 1.09c-1.14,0.05 -0.59,-1.27 -0.54,-1.92l0 -0.31 0.03 -0.01 1.61 -1.6 0.07 0.05zm-3.41 0.86l0.53 -1.56 0.37 0.89 -0.36 1.88 -0.19 1.61 2.16 1.19c1.18,-0.21 0.98,-1.04 1.46,-1.88 0.78,-1.37 2.94,-0.09 3.76,-1.76l-0.74 -2.41 -1.67 -0.3 -1.2 0.2 -0.69 -0.76 -2.34 -0.3c-1.23,0.61 -1.25,2.01 -1.31,3.19l0.22 0.02z"/>
    <polygon class="fil0" points="1278.58,139.67 1278.58,139.44 "/>
    <path class="fil0" d="M1287.72 130.01c-1.79,0.86 -3.21,2.48 -4.63,3.82 -1.6,1.52 -3.15,3.09 -4.67,4.68l0.72 0.72c1.57,-1.56 3.16,-3.07 4.76,-4.6 1.41,-1.35 3.11,-2.62 4.15,-4.3l-0.33 -0.33z"/>
    <polygon class="fil0" points="1249.83,90.64 1249.83,90.89 "/>
    <polygon class="fil0" points="1239.66,80.77 1239.66,81 "/>
    <path class="fil0" d="M1242.94 45c6.34,-3.27 12.32,-7.38 18.37,-11.16 2.88,-1.8 5.75,-3.63 8.62,-5.43 2.87,-1.81 6.03,-3.44 8.49,-5.8l-0.22 -0.37c-2.99,1.15 -5.66,3.16 -8.35,4.88 -3.03,1.92 -6.06,3.84 -9.07,5.78 -6.01,3.86 -12.3,7.52 -17.97,11.85l0.15 0.24z"/>
    <path class="fil0" d="M1287.54 18.47l0.11 -0.19 -0.02 -0.1 -0.03 -0.06 1.48 -1.02 1.49 -1.08 2.5 -2.19 -0.21 -0.37c-1.94,0.78 -3.83,2.46 -5.36,3.85l-0.54 1.07 0.57 0.1z"/>
    <path class="fil0" d="M1294.65 9.02c2.22,-1.08 4.45,-2.15 6.59,-3.37l-0.09 -0.2c-2.29,0.95 -4.5,2.09 -6.72,3.19l0.22 0.38z"/>
    <polygon class="fil0" points="1302.98,10.43 1302.98,10.19 "/>
    <path class="fil0" d="M1309.31 17.97c-2.58,0.8 -5.15,2.49 -6.83,4.63l0.33 0.33c2.15,-1.7 4.29,-3.21 6.65,-4.61l-0.15 -0.35z"/>
    <path class="fil0" d="M1334.29 28.22l0.43 0.11c0.46,-1.37 1.52,-2.28 2.87,-2.73l-0.07 -0.25c-1.58,0.25 -2.72,1.37 -3.22,2.87z"/>
    <polygon class="fil0" points="1322.43,53.41 1322.43,53.19 "/>
    <polygon class="fil0" points="1323.7,51.82 1322.7,52.69 1323.32,53.32 1324.2,52.32 "/>
    <path class="fil0" d="M1370.57 26.5c-4.73,3.76 -9.32,7.47 -14.5,10.63 -4.9,3 -10.14,5.43 -14.98,8.51l0 0.67 1.11 0.13 -0.04 -0.3 2.54 -1.34c1.36,-0.7 2.71,-1.4 4.06,-2.11 2.83,-1.5 5.62,-3.09 8.37,-4.76 4.96,-3.04 10.18,-6.43 14.15,-10.74l-0.69 -0.68z"/>
    <path class="fil0" d="M1359.66 46.46c-2.2,1.26 -4.42,2.48 -6.61,3.74 -0.91,0.53 -2.15,0.89 -2.5,1.96l0.07 0.25 0.29 0.26 0.17 0.04 0.31 -0.13 -0.07 -0.28c1.51,-0.39 3.65,-2.03 5.1,-2.81 2.07,-1.12 4.12,-2.28 6.16,-3.46 3.6,-2.09 7.23,-4.23 10.51,-6.82l-0.17 -0.21c-4.54,2.23 -8.85,4.96 -13.24,7.46z"/>
    <path class="fil0" d="M1358.52 55.13c0.35,-2.22 3.83,-3.2 5.52,-4.04 1.89,-0.93 3.74,-1.91 5.57,-2.96 3.22,-1.85 7.1,-3.75 9.67,-6.49l-0.31 -0.53c-2.29,0.93 -4.28,2.51 -6.37,3.81 -2.24,1.4 -4.49,2.73 -6.77,4.03 -2.41,1.4 -7.38,2.81 -7.64,6.13l0.32 0.04z"/>
    <path class="fil0" d="M1358.3 59.45l0.19 -0.24c-0.02,-0.02 11.42,-7.26 12.41,-7.85 3.74,-2.26 7.81,-4.28 11.19,-7.03l-0.27 -0.47c-4.88,1.98 -9.43,5.31 -13.86,8.13 -2.25,1.43 -4.49,2.89 -6.71,4.37 -1.02,0.68 -2.97,1.4 -3.23,2.76l0.08 0.2 0.2 0.15z"/>
    <path class="fil0" d="M1363.14 62.01l0.16 0.26c3.63,-1.91 7.34,-3.69 11,-5.54 3.81,-1.94 8.12,-3.64 11.56,-6.17l-0.31 -0.72c-3.9,1.37 -7.59,3.85 -11.21,5.85 -3.7,2.02 -7.81,3.81 -11.2,6.33z"/>
    <path class="fil0" d="M1385.64 65.32l-0.24 -0.25c-1.34,0.93 -2.69,1.66 -4.09,2.46l0.01 0.01 0.24 0.57c1.62,-0.3 3.16,-1.44 4.09,-2.78z"/>
    <path class="fil0" d="M1384.96 69.56c1.19,-0.39 2.13,-0.96 2.94,-1.92l-0.17 -0.22c-0.91,0.63 -1.88,1.21 -2.91,1.63l0.14 0.52z"/>
    <polygon class="fil0" points="1335.79,99.35 1335.79,99.6 "/>
    <path class="fil0" d="M1342.72 128.81l0 0.02c3.59,-2.44 7.13,-5.5 9.78,-8.94l-0.26 -0.26c-3.51,2.56 -6.85,5.6 -9.97,8.61l0.45 0.57z"/>
    <path class="fil0" d="M1364.17 120.79l2.11 -2.06 1.37 -1.17 -0.21 -0.37c-1.71,-0.15 -2.91,2.14 -3.64,3.38l0.37 0.21z"/>
    <path class="fil0" d="M1308.47 190.22l0.23 0.23c1.41,-1.28 2.96,-2.48 4.24,-3.89l-0.15 -0.19c-1.64,0.99 -3.04,2.44 -4.33,3.84z"/>
    <path class="fil0" d="M1312.48 188.99l-0.21 -0.28c-1.37,0.74 -2.43,1.76 -3.59,2.76l-0.24 0.06 -0.06 0.07 -0.05 0.33c0.68,1.18 3.74,-2.43 4.15,-2.94z"/>
    <polygon class="fil0" points="1312.67,190.25 1310.43,191.73 1308.42,194 1308.62,194.19 1310.8,192.38 1312.85,190.47 "/>
    <polygon class="fil0" points="1316.25,176.74 1314.14,178.46 1314.44,178.75 1316.41,176.94 "/>
    <path class="fil0" d="M1310.41 207.02c-0.91,0.7 -1.89,1.53 -2.43,2.56l0.43 0.43c1.12,-0.51 1.87,-1.63 2.32,-2.74l-0.32 -0.25z"/>
    <path class="fil0" d="M1323.36 206.19c-1.31,0.68 -2.59,1.77 -3.13,3.19l0.57 0.44c1.14,-0.87 2.06,-2.17 2.86,-3.34l-0.29 -0.3z"/>
    <polygon class="fil0" points="1326.3,207.7 1324.3,209.38 1324.83,209.91 1326.61,208.11 "/>
    <path class="fil0" d="M1334.66 206c-1.34,0.72 -2.98,2.15 -3.61,3.55l0.39 0.38c1.39,-0.63 2.8,-2.29 3.52,-3.63l-0.29 -0.3z"/>
    <path class="fil0" d="M1348.77 206.49c-1.07,0.72 -2.02,1.6 -2.85,2.58l0.57 0.58c0.97,-0.86 1.83,-1.81 2.54,-2.91l-0.26 -0.25z"/>
    <polygon class="fil0" points="1351.37,206.34 1348.84,208.65 1349.24,209.05 1351.58,206.56 "/>
    <polygon class="fil0" points="1355.83,208.7 1355.78,208.77 1355.74,209.07 1355.78,209.15 1356.1,209.29 1357.99,206.72 1357.76,206.54 1356.7,207.71 1356.38,208.09 1356.18,208.76 "/>
    <path class="fil0" d="M1367.26 6.36l-0.06 0.15c10.54,5.32 19.43,13.2 25.59,23.32 3.23,5.31 5.74,11 8.04,16.76 2.21,5.53 4.61,11.12 5.85,16.97 2.4,11.36 2,24.12 0.55,35.59 -1.47,11.67 -4.96,23.19 -11.29,33.17 -6.89,10.89 -16.64,19.78 -27.3,26.85l0.16 0.28c9.58,-6.3 18.56,-13.46 25.44,-22.72 7.25,-9.76 11.64,-21.08 13.7,-33.02 2.1,-12.18 2.32,-25.1 0.59,-37.34 -0.87,-6.2 -3.09,-12.01 -5.37,-17.81 -2.26,-5.73 -4.62,-11.44 -7.63,-16.83 -6.36,-11.41 -16.08,-20.52 -28.27,-25.39z"/>
    <polygon class="fil0" points="1267.74,13.48 1267.74,13.72 "/>
    <polygon class="fil0" points="1245.28,77.77 1245.28,78 "/>
    <path class="fil0" d="M1266.77 78.06l-0.91 -0.38 0.59 -0.98 1.11 0.26c0.54,0.13 1.96,0.67 0.85,1.13l-1.66 -0.04zm3.39 -0.66c-0.29,-1.35 -2.56,-1.99 -3.85,-1.63l-1.54 0.79c-0.64,1.69 1.33,2.52 2.62,2.63l0.47 0.02c-2.97,2.3 -5.93,4.59 -8.84,6.96l0.21 0.27c3.34,-2.44 6.64,-4.93 9.93,-7.45l0.9 -0.66c3.89,-3 7.74,-6.03 11.54,-9.13l-0.16 -0.21c-3.79,2.75 -7.55,5.56 -11.27,8.4z"/>
    <path class="fil0" d="M1388.91 84.44l-0.24 -0.24c-3.95,3.52 -7.85,7.14 -11.5,10.97l0.35 0.35c3.96,-3.49 7.72,-7.26 11.39,-11.07z"/>
   </g>
   <path class="fil0" d="M1016.01 21.4c-7.05,0 -13.79,0.93 -20.25,2.79 -6.47,1.86 -12.47,4.45 -18.01,7.74 -5.54,3.29 -10.57,7.28 -15.1,11.89 -4.53,4.61 -8.4,9.72 -11.58,15.3 -3.17,5.61 -5.61,11.54 -7.36,17.89 -1.74,6.31 -2.63,12.82 -2.63,19.48 0,6.93 0.89,13.59 2.71,19.98 1.82,6.43 4.38,12.39 7.63,17.93 3.25,5.57 7.16,10.61 11.69,15.14 4.57,4.53 9.64,8.44 15.22,11.7 5.57,3.29 11.5,5.81 17.81,7.59 6.31,1.78 12.86,2.67 19.67,2.67 8.83,0 17,-1.39 24.47,-4.14 7.51,-2.75 13.94,-6.12 19.28,-10.15l0 -46.7c0,-2.87 1.43,-4.3 4.3,-4.3l4.88 0c1.32,0 2.36,0.35 3.14,1.08 0.78,0.74 1.16,1.82 1.16,3.22l0 51.7c0,0.85 -0.23,1.59 -0.74,2.24 -0.5,0.66 -1.24,1.35 -2.17,2.05 -7.74,5.46 -16.15,9.88 -25.17,13.24 -9.06,3.33 -18.82,5 -29.28,5 -8.13,0 -15.95,-1.04 -23.5,-3.14 -7.55,-2.09 -14.56,-5.07 -21.07,-8.91 -6.5,-3.83 -12.43,-8.44 -17.81,-13.78 -5.38,-5.35 -9.95,-11.31 -13.75,-17.85 -3.8,-6.54 -6.74,-13.59 -8.83,-21.18 -2.09,-7.55 -3.13,-15.41 -3.13,-23.54 0,-8.06 1.04,-15.88 3.13,-23.43 2.09,-7.59 5.04,-14.64 8.87,-21.18 3.83,-6.54 8.44,-12.51 13.75,-17.93 5.34,-5.38 11.31,-9.99 17.85,-13.9 6.5,-3.87 13.55,-6.85 21.1,-8.98 7.55,-2.13 15.37,-3.21 23.51,-3.21 11.93,0 23.31,2.32 34.11,6.97 1.86,0.85 4.11,1.94 6.7,3.25 2.59,1.32 5.07,2.71 7.43,4.19 2.36,1.47 4.38,2.9 6.04,4.33 1.67,1.43 2.48,2.71 2.48,3.8 0,0.85 -0.31,1.67 -0.93,2.44l-3.1 3.95c-0.54,0.62 -1.04,1.12 -1.55,1.51 -0.5,0.39 -1.05,0.58 -1.67,0.58 -1.16,0 -2.67,-0.7 -4.61,-2.09 -6.74,-4.88 -13.82,-8.63 -21.3,-11.27 -7.48,-2.63 -15.3,-3.95 -23.43,-3.95z"/>
   <path id="1" class="fil0" d="M1983.25 151.16c1.55,-1.55 2.83,-2.75 3.83,-3.6 1,-0.85 2.28,-1.28 3.83,-1.28 0.85,0 1.59,0.27 2.21,0.81 0.62,0.54 1.12,1.08 1.51,1.63 3.25,3.64 6.85,6.85 10.76,9.68 3.91,2.83 8.06,5.23 12.43,7.16 4.38,1.94 8.83,3.41 13.4,4.42 4.57,1 9.1,1.51 13.59,1.51 6.27,0 12.51,-0.7 18.67,-2.09 6.16,-1.39 11.65,-3.6 16.54,-6.66 4.88,-3.06 8.83,-6.97 11.85,-11.77 3.02,-4.8 4.53,-10.61 4.53,-17.43 0,-3.91 -0.78,-7.43 -2.28,-10.49 -1.51,-3.06 -3.56,-5.73 -6.2,-7.98 -2.63,-2.28 -5.69,-4.26 -9.22,-5.92 -3.48,-1.67 -7.17,-3.14 -11.07,-4.38 -3.91,-1.24 -7.94,-2.32 -12.04,-3.29 -4.1,-0.97 -8.09,-1.86 -11.96,-2.71 -9.64,-2.17 -18.01,-4.61 -25.21,-7.32 -7.17,-2.71 -13.09,-5.85 -17.85,-9.41 -4.72,-3.56 -8.25,-7.59 -10.57,-12.16 -2.32,-4.57 -3.48,-9.83 -3.48,-15.8 0,-7.09 1.43,-13.52 4.26,-19.24 2.83,-5.73 6.85,-10.61 12.04,-14.6 5.19,-4.03 11.5,-7.13 18.86,-9.3 7.36,-2.17 15.61,-3.25 24.67,-3.25 10.19,0 19.79,1.74 28.81,5.26 9.06,3.49 17.16,8.79 24.28,15.88 1.01,1.01 1.78,1.78 2.29,2.36 0.5,0.58 0.73,1.2 0.73,1.82 0,0.62 -0.39,1.32 -1.16,2.13 -0.77,0.81 -1.93,1.98 -3.48,3.45 -0.7,0.62 -1.28,1.12 -1.74,1.51 -0.46,0.39 -0.93,0.58 -1.4,0.58 -1,0 -2.36,-0.74 -4.06,-2.21 -2.75,-2.32 -5.58,-4.53 -8.56,-6.62 -3.02,-2.09 -6.27,-3.95 -9.87,-5.57 -3.56,-1.63 -7.51,-2.94 -11.81,-3.91 -4.3,-0.97 -9.1,-1.43 -14.37,-1.43 -7.63,0 -14.25,0.85 -19.91,2.59 -5.69,1.74 -10.42,4.14 -14.21,7.16 -3.83,2.98 -6.66,6.51 -8.56,10.54 -1.9,4.02 -2.87,8.28 -2.87,12.78 0,3.49 0.62,6.55 1.86,9.22 1.24,2.67 2.98,5.07 5.19,7.2 2.21,2.13 4.8,3.99 7.78,5.54 2.98,1.59 6.24,3.02 9.68,4.3 3.44,1.28 7.09,2.44 10.88,3.44 3.8,1.01 7.59,1.94 11.42,2.79 4.49,1.08 9.18,2.24 14.02,3.44 4.84,1.24 9.6,2.71 14.25,4.37 4.65,1.67 9.06,3.6 13.2,5.81 4.18,2.2 7.82,4.84 10.96,7.94 3.14,3.1 5.61,6.7 7.44,10.77 1.82,4.1 2.75,8.87 2.75,14.29 0,8.52 -1.7,15.95 -5.15,22.38 -3.45,6.43 -8.09,11.81 -14.02,16.15 -5.89,4.3 -12.78,7.59 -20.72,9.8 -7.94,2.21 -16.42,3.29 -25.4,3.29 -5.89,0 -11.66,-0.54 -17.31,-1.59 -5.65,-1.09 -11.04,-2.75 -16.19,-5.11 -5.15,-2.33 -10.03,-5.23 -14.6,-8.79 -4.57,-3.52 -8.75,-7.74 -12.55,-12.63 -0.54,-0.62 -0.97,-1.2 -1.28,-1.74 -0.31,-0.54 -0.46,-1.16 -0.46,-1.86 0,-0.62 0.35,-1.24 1.05,-1.86z"/>
   <path id="2" class="fil0" d="M1212.57 167.78c1.31,0 2.36,0.39 3.13,1.12 0.78,0.74 1.16,1.82 1.16,3.22l0 6.08c0,1.24 -0.39,2.28 -1.16,3.06 -0.77,0.78 -1.82,1.16 -3.13,1.16l-101.15 0c-2.83,0 -4.22,-1.39 -4.22,-4.18l0 -164.27c0,-1.24 0.39,-2.24 1.12,-3.02 0.74,-0.78 1.82,-1.16 3.22,-1.16l6.08 0c1.31,0 2.36,0.35 3.1,1.04 0.74,0.7 1.12,1.74 1.12,3.14l0 153.81 90.74 0z"/>
   <path id="3" class="fil0" d="M1533.2 9.78c6.43,0 12.43,1.12 18.01,3.41 5.57,2.29 10.46,5.46 14.6,9.49 4.15,4.07 7.4,8.83 9.76,14.33 2.36,5.46 3.52,11.39 3.52,17.7 0,7.67 -1.78,14.6 -5.31,20.83 -3.56,6.28 -8.25,11.35 -14.13,15.3 4.11,1.7 7.9,4.07 11.35,7.05 3.45,2.98 6.43,6.39 8.94,10.19 2.52,3.83 4.49,7.98 5.89,12.47 1.39,4.53 2.09,9.14 2.09,13.87 0,6.39 -1.2,12.43 -3.56,18.2 -2.36,5.73 -5.58,10.81 -9.68,15.18 -4.11,4.41 -8.98,7.94 -14.56,10.57 -5.57,2.63 -11.58,3.99 -18,4.07l-78.38 0c-1.08,-0.08 -1.9,-0.43 -2.48,-1.05 -0.58,-0.62 -0.96,-1.39 -1.12,-2.32l0 -164.85c0,-1.94 0.43,-3.17 1.28,-3.68 0.85,-0.5 1.7,-0.74 2.56,-0.74l69.24 0zm40.08 124.69c0,-4.37 -0.85,-8.63 -2.59,-12.74 -1.74,-4.1 -4.07,-7.74 -6.97,-10.88 -2.91,-3.17 -6.27,-5.73 -10.15,-7.63 -3.87,-1.9 -7.94,-2.83 -12.2,-2.83l-66.61 0 0 67.38 67.42 0c4.19,0 8.13,-0.89 11.89,-2.71 3.76,-1.82 7.05,-4.26 9.91,-7.28 2.87,-2.98 5.15,-6.5 6.81,-10.53 1.67,-4.03 2.48,-8.29 2.48,-12.78zm-8.83 -79.57c0,-4.34 -0.81,-8.41 -2.44,-12.12 -1.63,-3.72 -3.83,-6.93 -6.58,-9.68 -2.79,-2.71 -6.12,-4.84 -9.91,-6.39 -3.83,-1.51 -7.94,-2.28 -12.35,-2.28l-58.4 0 0 61.34 58.28 0c4.41,0 8.52,-0.78 12.28,-2.36 3.8,-1.59 7.13,-3.76 9.99,-6.51 2.83,-2.75 5.07,-6 6.7,-9.76 1.63,-3.8 2.44,-7.86 2.44,-12.24z"/>
   <path id="4" class="fil0" d="M1605.46 178.11c0.54,-1.78 1.12,-3.44 1.7,-4.96 0.58,-1.51 1.12,-2.87 1.67,-4.1l65.29 -156.37c0.39,-0.85 0.85,-1.63 1.39,-2.33 0.54,-0.7 1.43,-1.04 2.67,-1.04l0.46 0 3.83 0 0.46 0c1.31,0 2.24,0.35 2.79,1.04 0.54,0.7 1.04,1.39 1.51,2.09l68.19 164.38c0.08,0.15 0.16,0.5 0.23,1.08 0.08,0.58 0.12,1.01 0.12,1.24 0,1.86 -1.24,2.94 -3.72,3.25l-6.16 0c-0.16,0 -0.31,0.04 -0.46,0.12 -0.16,0.07 -0.31,0.11 -0.46,0.11 -1.94,0 -3.33,-1.08 -4.19,-3.25l-16.26 -39.73 -88.06 0c-3.02,7.44 -5.89,14.56 -8.64,21.3 -2.75,6.78 -5.26,12.93 -7.51,18.55 -0.85,1.94 -2.21,2.91 -4.07,2.91 -0.46,0 -0.81,-0.08 -1.04,-0.23l-6.16 0c-2.48,-0.23 -3.72,-1.24 -3.72,-3.02 0,-0.16 0,-0.35 0,-0.54 0,-0.19 0.04,-0.35 0.11,-0.5zm37.06 -53.09l76.09 0 -37.87 -92.82 -38.22 92.82z"/>
   <path id="5" class="fil0" d="M1887.88 167.78c1.31,0 2.36,0.39 3.13,1.12 0.78,0.74 1.16,1.82 1.16,3.22l0 6.08c0,1.24 -0.39,2.28 -1.16,3.06 -0.77,0.78 -1.82,1.16 -3.13,1.16l-101.15 0c-2.83,0 -4.22,-1.39 -4.22,-4.18l0 -164.27c0,-1.24 0.39,-2.24 1.12,-3.02 0.74,-0.78 1.82,-1.16 3.22,-1.16l6.08 0c1.31,0 2.36,0.35 3.1,1.04 0.74,0.7 1.12,1.74 1.12,3.14l0 153.81 90.73 0z"/>
   <path id="6" class="fil0" d="M2277.52 26.28c1.63,1.08 2.44,2.28 2.44,3.6 0,0.85 -0.31,1.67 -0.93,2.44l-3.14 3.95c-0.54,0.62 -1.05,1.12 -1.55,1.51 -0.5,0.39 -1.08,0.58 -1.7,0.58 -1.16,0 -2.71,-0.7 -4.65,-2.09 -6.74,-4.88 -13.82,-8.71 -21.3,-11.46 -7.48,-2.75 -15.3,-4.1 -23.43,-4.1 -7.13,0 -13.94,0.93 -20.44,2.79 -6.51,1.86 -12.55,4.45 -18.16,7.82 -5.62,3.37 -10.73,7.39 -15.3,12.04 -4.57,4.65 -8.48,9.76 -11.73,15.33 -3.25,5.57 -5.77,11.5 -7.55,17.77 -1.78,6.28 -2.67,12.7 -2.67,19.28 0,6.66 0.96,13.17 2.86,19.56 1.9,6.39 4.53,12.39 7.9,18 3.37,5.61 7.36,10.77 12,15.45 4.65,4.69 9.72,8.75 15.22,12.16 5.5,3.41 11.34,6.04 17.54,7.94 6.2,1.9 12.55,2.87 19.05,2.87 3.95,0 8.06,-0.39 12.28,-1.16 4.22,-0.77 8.37,-1.9 12.47,-3.37 4.11,-1.47 8.13,-3.3 12.04,-5.42 3.91,-2.13 7.48,-4.53 10.73,-7.24 0.93,-0.7 1.9,-1.04 2.91,-1.04 1.63,0 3.06,0.97 4.3,2.9l1.74 2.79c0.54,0.93 0.81,1.9 0.81,2.91 0,1.7 -0.78,3.14 -2.33,4.3 -7.59,5.85 -15.95,10.42 -25.09,13.67 -9.14,3.29 -18.9,4.92 -29.28,4.92 -8.06,0 -15.84,-1.04 -23.39,-3.14 -7.55,-2.09 -14.6,-5.07 -21.14,-8.94 -6.55,-3.87 -12.55,-8.52 -17.97,-13.9 -5.42,-5.38 -10.07,-11.38 -13.91,-18 -3.87,-6.62 -6.85,-13.75 -9.02,-21.34 -2.13,-7.59 -3.21,-15.49 -3.21,-23.74 0,-8.06 1.04,-15.84 3.17,-23.39 2.09,-7.59 5.11,-14.64 8.98,-21.18 3.92,-6.55 8.56,-12.51 13.94,-17.89 5.38,-5.39 11.39,-9.99 18.01,-13.83 6.62,-3.83 13.71,-6.81 21.3,-8.94 7.59,-2.13 15.49,-3.21 23.7,-3.21 9.99,0 19.67,1.63 29.04,4.88 9.37,3.29 17.85,7.9 25.44,13.94z"/>
   <path id="7" class="fil0" d="M2437.13 13.96c0,-1.24 0.39,-2.24 1.16,-3.02 0.78,-0.78 1.82,-1.16 3.14,-1.16l5.81 0c1.32,0 2.4,0.35 3.26,1.08 0.85,0.74 1.28,1.78 1.28,3.1l0 164.27c0,2.79 -1.51,4.18 -4.53,4.18l-5.81 0c-2.87,0 -4.3,-1.39 -4.3,-4.18l0 -76.91 -111.06 0 0 76.91c0,2.79 -1.47,4.18 -4.45,4.18l-5.85 0c-2.91,0 -4.34,-1.39 -4.34,-4.18l0 -164.27c0,-1.24 0.39,-2.24 1.16,-3.02 0.78,-0.78 1.86,-1.16 3.18,-1.16l5.96 0c1.31,0 2.4,0.39 3.17,1.16 0.78,0.78 1.16,1.78 1.16,3.02l0 72.72 111.06 0 0 -72.72z"/>
   <path id="8" class="fil0" d="M2480.47 96.37c0,-8.13 1.04,-15.96 3.13,-23.51 2.09,-7.59 5.04,-14.64 8.87,-21.18 3.83,-6.54 8.44,-12.51 13.82,-17.97 5.38,-5.42 11.35,-10.03 17.93,-13.86 6.58,-3.83 13.63,-6.81 21.15,-8.94 7.51,-2.13 15.37,-3.21 23.58,-3.21 8.02,0 15.83,1.08 23.39,3.21 7.55,2.13 14.56,5.11 21.11,8.94 6.54,3.83 12.51,8.44 17.89,13.83 5.38,5.38 9.99,11.38 13.82,17.96 3.84,6.58 6.82,13.67 8.95,21.26 2.13,7.59 3.17,15.45 3.17,23.58 0,8.17 -1.04,15.99 -3.17,23.51 -2.13,7.51 -5.11,14.56 -8.95,21.1 -3.83,6.54 -8.44,12.47 -13.82,17.85 -5.38,5.35 -11.35,9.91 -17.89,13.75 -6.54,3.83 -13.56,6.81 -21.11,8.91 -7.55,2.09 -15.41,3.14 -23.5,3.14 -8.13,0 -15.99,-1.04 -23.54,-3.14 -7.51,-2.09 -14.56,-5.07 -21.11,-8.91 -6.54,-3.83 -12.51,-8.44 -17.89,-13.82 -5.38,-5.38 -9.99,-11.35 -13.82,-17.89 -3.83,-6.55 -6.78,-13.59 -8.87,-21.11 -2.09,-7.51 -3.13,-15.33 -3.13,-23.5zm13.48 -0.16c0,10.38 1.97,20.1 5.89,29.16 3.91,9.06 9.25,16.96 16.03,23.74 6.78,6.78 14.71,12.12 23.81,16.03 9.14,3.91 18.86,5.89 29.28,5.89 6.89,0 13.51,-0.89 19.86,-2.67 6.35,-1.78 12.31,-4.3 17.85,-7.55 5.54,-3.26 10.57,-7.17 15.18,-11.7 4.57,-4.53 8.48,-9.56 11.74,-15.1 3.25,-5.54 5.77,-11.5 7.55,-17.89 1.78,-6.39 2.67,-13.01 2.67,-19.91 0,-10.3 -1.97,-19.98 -5.93,-29.04 -3.95,-9.06 -9.33,-17 -16.11,-23.78 -6.78,-6.78 -14.72,-12.12 -23.78,-16.07 -9.06,-3.95 -18.74,-5.92 -29.04,-5.92 -6.93,0 -13.56,0.89 -19.94,2.67 -6.39,1.78 -12.39,4.3 -17.97,7.55 -5.57,3.25 -10.65,7.17 -15.18,11.74 -4.53,4.57 -8.44,9.6 -11.7,15.14 -3.25,5.54 -5.77,11.5 -7.55,17.89 -1.78,6.39 -2.67,13.01 -2.67,19.83z"/>
   <path id="9" class="fil0" d="M2681.1 96.37c0,-8.13 1.04,-15.96 3.13,-23.51 2.09,-7.59 5.04,-14.64 8.87,-21.18 3.83,-6.54 8.44,-12.51 13.82,-17.97 5.38,-5.42 11.35,-10.03 17.93,-13.86 6.58,-3.83 13.63,-6.81 21.15,-8.94 7.51,-2.13 15.37,-3.21 23.58,-3.21 8.02,0 15.83,1.08 23.39,3.21 7.55,2.13 14.56,5.11 21.11,8.94 6.54,3.83 12.51,8.44 17.89,13.83 5.38,5.38 9.99,11.38 13.82,17.96 3.83,6.58 6.82,13.67 8.95,21.26 2.13,7.59 3.17,15.45 3.17,23.58 0,8.17 -1.04,15.99 -3.17,23.51 -2.13,7.51 -5.11,14.56 -8.95,21.1 -3.83,6.54 -8.44,12.47 -13.82,17.85 -5.38,5.35 -11.35,9.91 -17.89,13.75 -6.54,3.83 -13.56,6.81 -21.11,8.91 -7.55,2.09 -15.41,3.14 -23.5,3.14 -8.13,0 -15.99,-1.04 -23.54,-3.14 -7.51,-2.09 -14.56,-5.07 -21.11,-8.91 -6.54,-3.83 -12.51,-8.44 -17.89,-13.82 -5.38,-5.38 -9.99,-11.35 -13.82,-17.89 -3.83,-6.55 -6.78,-13.59 -8.87,-21.11 -2.09,-7.51 -3.13,-15.33 -3.13,-23.5zm13.48 -0.16c0,10.38 1.97,20.1 5.89,29.16 3.91,9.06 9.25,16.96 16.03,23.74 6.78,6.78 14.71,12.12 23.81,16.03 9.14,3.91 18.86,5.89 29.28,5.89 6.89,0 13.51,-0.89 19.86,-2.67 6.35,-1.78 12.31,-4.3 17.85,-7.55 5.54,-3.26 10.57,-7.17 15.18,-11.7 4.57,-4.53 8.48,-9.56 11.74,-15.1 3.25,-5.54 5.77,-11.5 7.55,-17.89 1.78,-6.39 2.67,-13.01 2.67,-19.91 0,-10.3 -1.97,-19.98 -5.93,-29.04 -3.95,-9.06 -9.33,-17 -16.11,-23.78 -6.78,-6.78 -14.72,-12.12 -23.78,-16.07 -9.06,-3.95 -18.74,-5.92 -29.04,-5.92 -6.93,0 -13.56,0.89 -19.94,2.67 -6.39,1.78 -12.39,4.3 -17.97,7.55 -5.57,3.25 -10.65,7.17 -15.18,11.74 -4.53,4.57 -8.44,9.6 -11.7,15.14 -3.25,5.54 -5.77,11.5 -7.55,17.89 -1.78,6.39 -2.67,13.01 -2.67,19.83z"/>
   <path id="10" class="fil0" d="M2995.69 167.78c1.31,0 2.36,0.39 3.13,1.12 0.78,0.74 1.16,1.82 1.16,3.22l0 6.08c0,1.24 -0.39,2.28 -1.16,3.06 -0.77,0.78 -1.82,1.16 -3.13,1.16l-101.15 0c-2.83,0 -4.22,-1.39 -4.22,-4.18l0 -164.27c0,-1.24 0.39,-2.24 1.12,-3.02 0.74,-0.78 1.82,-1.16 3.22,-1.16l6.08 0c1.31,0 2.36,0.35 3.1,1.04 0.74,0.7 1.12,1.74 1.12,3.14l0 153.81 90.73 0z"/>
   <g>
    <path class="fil1" d="M692.08 12.02l0 163.98c0,3.06 3.44,4.74 6.63,4.74l112.81 0c11.96,0 8.54,-10.13 8.54,-35.07 0,-2.91 -0.88,-5.69 -3.79,-5.69l-78.69 0c0,-36.71 -6.81,-29.39 32.23,-29.39 6,0 12.02,-0.03 18.02,0 14.73,0.08 12.32,3.7 12.32,-30.33 0,-3.06 -3.44,-4.74 -6.64,-4.74l-55.93 0 0 -27.49c14.25,0 68.91,1.33 78.69,-0.95 2.03,-8.72 0.94,-25.35 0.94,-35.07 0,-3.06 -3.44,-4.74 -6.63,-4.74l-111.87 0c-3.19,0 -6.63,1.67 -6.63,4.74z"/>
    <path class="fil1" d="M538.5 12.02l0 163.98c0,3.06 3.44,4.74 6.63,4.74l112.82 0c5.13,0 8.53,-1.93 8.53,-7.58l0 -29.39c0,-2.22 -1.57,-3.79 -3.79,-3.79l-78.69 0c0,-36.71 -6.81,-29.39 32.24,-29.39 6,0 12.01,-0.03 18.02,0 14.73,0.08 12.32,3.7 12.32,-30.33 0,-3.06 -3.44,-4.74 -6.63,-4.74l-55.94 0 0 -27.49c14.25,0 68.91,1.33 78.69,-0.95 2.03,-8.72 0.95,-25.35 0.95,-35.07 0,-3.06 -3.44,-4.74 -6.64,-4.74l-111.87 0c-3.19,0 -6.63,1.67 -6.63,4.74z"/>
    <path class="fil1" d="M0.02 12.02l0 163.98c0,3.06 3.44,4.74 6.64,4.74 10.59,0 30.96,1.44 37.92,-1.9 2.17,-9.32 0.95,-44.83 0.95,-56.87l52.14 0c3.06,0 4.74,-3.44 4.74,-6.64l0 -27.49c0,-2.21 -2.53,-4.74 -4.74,-4.74l-52.14 0 0 -35.07 69.2 0c4.54,0 6.64,-3.2 6.64,-7.58 0,-17.82 3.27,-33.17 -7.59,-33.17l-107.13 0c-3.2,0 -6.64,1.67 -6.64,4.74z"/>
    <path class="fil1" d="M457.92 10.13l0 139.34c0,7 0.5,15.98 -0.01,22.74 -0.89,11.98 -9.04,12.33 -16.11,12.33 -7.48,0 -7.88,-7.59 -15.17,-7.59 -4.11,0 -14.43,12.93 -19.91,17.06 -11.61,8.76 -3.49,14.07 5.92,22.52 13.05,11.71 38.45,15.03 56.65,6.87 19.04,-8.54 34.13,-27.17 34.13,-49.29 0,-22.17 1.51,-154.4 -0.94,-164.93 -6.96,-3.34 -27.33,-1.89 -37.92,-1.89 -3.48,0 -4.59,1.47 -6.64,2.84z"/>
    <path class="fil1" d="M296.75 13.92l0 27.49c0,3.19 1.67,6.63 4.74,6.63l40.76 0 0 127.02c0,3.07 4.12,5.69 7.59,5.69l30.33 0c3.46,0 7.59,-2.62 7.59,-5.69l0 -127.02 40.76 0c3.06,0 4.74,-3.44 4.74,-6.63l0 -28.44c0,-3.07 -4.12,-5.69 -7.58,-5.69l-121.35 0c-4.37,0 -7.58,2.1 -7.58,6.63z"/>
    <path class="fil1" d="M146.96 12.02l0 163.98c0,3.06 3.44,4.74 6.64,4.74 10.59,0 30.96,1.44 37.92,-1.9 2.46,-10.54 0.95,-143.61 0.95,-165.88 0,-3.07 -4.12,-5.69 -7.59,-5.69l-31.28 0c-3.2,0 -6.64,1.67 -6.64,4.74z"/>
    <path class="fil1" d="M226.6 13.92c0,22.17 -1.51,154.4 0.94,164.93 6.89,3.3 25.65,1.9 36.03,1.9 3.84,0 8.53,-1.02 8.53,-4.74l0 -163.98c0,-2.95 -4.69,-4.74 -7.58,-4.74l-31.29 0c-4.43,0 -6.63,2.21 -6.63,6.63z"/>
   </g>
  </g>
 </g>
</svg>
